<?xml version="1.0" encoding="utf-8"?>
<!-- Generator: Adobe Illustrator 21.1.0, SVG Export Plug-In . SVG Version: 6.00 Build 0)  -->
<svg version="1.1" id="Capa_1" xmlns="http://www.w3.org/2000/svg" xmlns:xlink="http://www.w3.org/1999/xlink" x="0px" y="0px"
	 viewBox="0 0 639 638" style="enable-background:new 0 0 639 638;" xml:space="preserve">
<style type="text/css">
	.st0{fill-rule:evenodd;clip-rule:evenodd;fill:#D1F4FE;}
	.st1{fill:#FF7258;}
	.st2{fill:#F95D48;}
	.st3{fill:#FFDC65;}
	.st4{fill:#FFC846;}
	.st5{fill:#00ABE0;}
	.st6{fill:#099DD1;}
</style>
<path class="st0" d="M320.2,5.5c173,0,313.3,140.3,313.3,313.3c0,173-140.3,313.3-313.3,313.3S6.9,491.9,6.9,318.8
	C6.9,145.8,147.2,5.5,320.2,5.5z"/>
<g>
	<path class="st1" d="M551.8,301.5h-125c-4,0-7.5-2.8-8.4-6.7c-8.8-36.8-37.8-65.7-74.6-74.4c-3.9-0.9-6.7-4.4-6.7-8.4V87.2
		c0-5.2,4.5-9.2,9.6-8.6c54.6,5.8,105.2,29.8,144.6,69.2c39.3,39.3,63.3,89.7,69.2,144.2C561,297,557,301.5,551.8,301.5z"/>
	<path class="st2" d="M337.1,212.1v-25.7c60.2,7.4,107.9,55,115.5,115.2h-25.8c-4,0-7.5-2.8-8.4-6.7c-8.8-36.8-37.8-65.7-74.6-74.4
		C339.9,219.6,337.1,216.1,337.1,212.1z"/>
	<path class="st3" d="M560.5,343.6c-4.8,46.1-22.7,89.4-51.8,125.5c-3.2,4-9.2,4.4-12.9,0.7l-70-70l-18.4-18.4
		c-2.8-2.8-3.3-7.3-1.2-10.7c5.6-9.1,9.8-19.2,12.3-30c0.9-3.9,4.4-6.7,8.4-6.7h124.9C557.1,334,561.1,338.5,560.5,343.6z"/>
	<path class="st4" d="M452.8,334c-2.9,24.6-12.5,47.2-26.9,65.8l-18.4-18.4c-2.8-2.8-3.3-7.3-1.2-10.7c5.6-9.1,9.8-19.2,12.3-30
		c0.9-3.9,4.4-6.7,8.4-6.7L452.8,334L452.8,334z"/>
	<path class="st5" d="M473,492.8c3.6,3.6,3.3,9.6-0.7,12.9c-42.7,34.6-95.6,53.5-151.4,53.5c-64.4,0-124.9-25.1-170.4-70.6
		c-45.3-45.3-70.3-105.4-70.6-169.3c-0.3-64.2,25.2-126.1,70.6-171.5c39.4-39.4,90-63.4,144.6-69.2c5.1-0.5,9.6,3.5,9.6,8.6v124.9
		c0,4-2.8,7.5-6.7,8.4c-44.3,10.4-77.3,50.2-77.3,97.6c0,55.3,45,100.3,100.3,100.3c19.4,0,37.6-5.6,53-15.2
		c3.4-2.1,7.9-1.7,10.7,1.2L473,492.8z"/>
	<path class="st6" d="M384.6,404.5l18.5,18.5c-22.7,17.9-51.3,28.6-82.4,28.6c-73.7,0-132.9-59-133.1-132.7
		c-0.2-68.2,51-124.6,117.1-132.5v25.8c0,4-2.8,7.5-6.7,8.4c-44.3,10.4-77.3,50.2-77.3,97.6c0,55.3,45,100.3,100.3,100.3
		c19.4,0,37.6-5.6,53-15.2C377.3,401.1,381.8,401.6,384.6,404.5z"/>
</g>
</svg>
