<?xml version="1.0" encoding="utf-8"?>
<!-- Generator: Adobe Illustrator 21.1.0, SVG Export Plug-In . SVG Version: 6.00 Build 0)  -->
<svg version="1.1" id="Capa_1" xmlns="http://www.w3.org/2000/svg" xmlns:xlink="http://www.w3.org/1999/xlink" x="0px" y="0px"
	 viewBox="0 0 639 638" style="enable-background:new 0 0 639 638;" xml:space="preserve">
<style type="text/css">
	.st0{fill:#FFF6DE;}
	.st1{clip-path:url(#SVGID_2_);}
	.st2{fill:#F8B64C;}
	.st3{fill:#40596B;}
	.st4{fill:#334A5E;}
	.st5{fill:#CDD6E0;}
	.st6{fill:#54C0EB;}
	.st7{fill:#FFD15C;}
	.st8{opacity:0.1;}
	.st9{fill:#F2F2F2;}
</style>
<path class="st0" d="M320.2,5.5c173,0,313.3,140.3,313.3,313.3S493.2,632.1,320.2,632.1S6.9,491.9,6.9,318.8
	C6.9,145.8,147.2,5.5,320.2,5.5z"/>
<g>
	<defs>
		<path id="SVGID_1_" d="M320.2,5.5c173,0,313.3,140.3,313.3,313.3S493.2,632.1,320.2,632.1S6.9,491.9,6.9,318.8
			C6.9,145.8,147.2,5.5,320.2,5.5z"/>
	</defs>
	<clipPath id="SVGID_2_">
		<use xlink:href="#SVGID_1_"  style="overflow:visible;"/>
	</clipPath>
	<g class="st1">
		<g>
			<path class="st2" d="M241,266.9c1.8,20.5-8.2,38.1-22.2,39.3c-14.1,1.2-26.9-14.4-28.7-34.9c-1.8-20.5,8.2-38.1,22.2-39.3
				C226.4,230.8,239.2,246.4,241,266.9"/>
			<path class="st2" d="M452.3,271.3c-1.8,20.5-14.6,36.1-28.7,34.9c-14.1-1.2-24-18.8-22.2-39.3c1.8-20.5,14.6-36.1,28.7-34.9
				C444.1,233.2,454,250.8,452.3,271.3"/>
		</g>
		<path class="st3" d="M595,521.3v112.8H47V521.3c0-21.8,13.4-41.4,33.7-49.3l58.2-22.9l43.6-17.1l36.5-14.4l20.9-8.2l0.2,0.1h0.1
			c0.3,0.4,0.7,0.9,1,1.4h0.1v0.1c2.2,3,4.5,5.7,6.7,8.3c19.5,21.3,46.1,32,72.8,32c26.8,0,53.8-10.7,73.2-32.2
			c2.3-2.6,4.6-5.3,6.6-8.2c0,0,0.1,0,0.1-0.1c0.3-0.3,0.6-0.8,0.9-1.2h0.1l0.1-0.1l21.1,8.3l36.4,14.3l43.6,17.1l58.2,22.9
			C581.6,480,595,499.5,595,521.3"/>
		<g>
			<path class="st4" d="M489.9,547.2c0,0-14.7,38.3-52.6,86.9h-89.7c1.7-4.3,3.5-8.8,5.4-13.1c4-9.6,8.3-19.1,13-27.7
				c0,0,25.8-52.7,34.7-113.2c1.6-10.2,2.6-20.6,3-31.1c0.6-12.8,0-25.8-2.1-38.2c-1-6.6-2.5-13.1-4.5-19.4
				c0,0,88.1,107.8,92.8,128.2c0,0-42.5,15.6-59,8.7C430.9,528.1,443.9,548.1,489.9,547.2"/>
			<path class="st4" d="M296,634.1h-89.7c-37.8-48.5-52.5-86.9-52.5-86.9c45.9,0.9,58.9-19.1,58.9-19.1c-16.4,7-58.9-8.7-58.9-8.7
				c4.6-20.4,92.7-128.2,92.7-128.2c-2,6.4-3.4,12.9-4.5,19.5c-2.1,12.4-2.6,25.4-2.1,38.1c0.3,10.5,1.4,20.9,3,31.1
				c8.9,60.5,34.7,113.2,34.7,113.2c4.8,8.9,9.3,18.5,13.2,28.3C292.7,625.7,294.3,629.9,296,634.1"/>
		</g>
		<path class="st5" d="M403,448.9c-0.3,10.5-1.4,20.9-3,31.1c-8.9,60.5-34.7,113.2-34.7,113.2c-4.7,8.7-9,18.2-13,27.7
			c-0.4,1.3-1,2.4-1.5,3.7c-1.4,3.2-2.6,6.4-3.9,9.5h-51.6c-1.4-3.4-2.6-6.7-4.1-10.1c-0.3-0.8-0.7-1.7-1-2.5
			c-4-9.8-8.4-19.4-13.2-28.3c0,0-25.8-52.7-34.7-113.2c-1.6-10.2-2.6-20.6-3-31.1c-0.6-12.8,0-25.7,2.1-38.1h0.1v0.1
			c2.2,3,4.5,5.7,6.7,8.3c19.5,21.3,46.1,32,72.8,32c26.8,0,53.8-10.7,73.2-32.2c2.3-2.6,4.6-5.3,6.6-8.2c0,0,0.1,0,0.1-0.1
			C403,423.1,403.5,436.1,403,448.9"/>
		<path class="st6" d="M337.5,532.6l13.4,92c-1.4,3.2-2.6,6.4-3.9,9.5h-51.6c-1.4-3.4-2.6-6.7-4.1-10.1l13.1-91.4l-7.9-6.4
			c-0.9-6.3-0.7-12.4-1.2-17.9c-0.3-4.3-1.3-8.2-3.8-11.3c-3.9-4.9-7-8-7-8l10.8-3.1l11.8-4.1l13.7-4.8l14.2,4.9l11.5,4l10.9,3.1
			c0,0-3.1,3.1-7,8c-2.4,3.1-3.4,6.8-3.8,10.9c-0.7,5.6-0.3,11.9-1.4,18.3L337.5,532.6z"/>
		<path class="st2" d="M240.2,420.7L240.2,420.7L240.2,420.7L240.2,420.7L240.2,420.7c20.3,26.9,50.7,56.3,81,56.3
			c30.3,0,60.6-29.4,80.9-56.3l0,0v0v-59.3h-162L240.2,420.7L240.2,420.7z"/>
		<path class="st7" d="M439.3,203.6v38.8c0,0.7,0,1.5-0.1,2.2c0.1,0.6,0,1,0,1.6c0,0.7,0,1.5-0.1,2.2c-0.1,6.3-0.6,12.4-1.4,18.6
			c0,0.1,0,0.3-0.1,0.5c-0.3,3.1-0.8,6.1-1.3,9.1c-1.8,10.2-4.1,20.2-7.2,29.9c-9.7,30.9-26,59.5-48.1,83.6l-11.3,12.3
			c-10.3,11.3-24.9,17.7-40.2,17.7h-17.1c-15.2,0-29.8-6.5-40.1-17.7L261.2,390c-15.6-17-28.4-36.4-37.9-57.1
			c-8.2-17.7-14-36.4-17.2-55.8c-0.6-3.1-0.9-6.2-1.4-9.2c0-0.3-0.1-0.6-0.1-0.9c-0.8-6.1-1.2-12.3-1.4-18.5v-1.3
			c0-0.1-0.1-0.1-0.1-0.2c-0.1-0.8-0.1-1.6-0.1-2.4v-2.2c-0.1-0.9-0.1-1.7-0.1-2.6v-35.5c0-6.5,0.6-12.9,1.7-19.2v-0.3
			c0.7-4.5,1.6-8.7,2.9-12.9c1.4-4.9,3.1-9.7,5.1-14.3c18-42,59.8-71.5,108.6-71.5c48.5,0,90.3,29.3,108.3,71.2
			c2.1,4.7,3.8,9.5,5.3,14.5c1.2,4.2,2.3,8.4,3,12.9v0.3C438.8,191.1,439.3,197.3,439.3,203.6"/>
		<g class="st8">
			<g>
				<path class="st3" d="M381.2,390l-11.3,12.3C359.6,413.6,345,420,329.7,420h-17.1c-7.4,0-14.6-1.6-21.3-4.5l65.7,49.2
					c17.4-11.6,30.3-24.9,44.6-43.5c0.2-0.2,0.3-0.4,0.5-0.6l0-57.9C395.7,372.3,388.9,381.5,381.2,390"/>
			</g>
		</g>
		<path class="st6" d="M357.4,489c0,0-3.1,3.1-7,8c-2.4,3.1-3.4,6.8-3.8,10.9c-10.4-7-19.6-13.2-25.4-17.1
			c-5.8,3.9-15.4,10.3-25.9,17.5c-0.3-4.3-1.3-8.2-3.8-11.3c-3.9-4.9-7-8-7-8l10.8-3.1l11.8-4.1l13.7-4.8l14.2,4.9l11.5,4L357.4,489
			z"/>
		<g>
			<path class="st9" d="M321.1,477c-30.3,0-60.5-29.4-80.8-56.2c-5.7,47.6,11.5,103,11.5,103s65.3-44.1,69.6-46.8h0
				C321.3,477,321.2,477,321.1,477"/>
			<path class="st9" d="M402.1,419.2v1.5v0l0,0.1c-20.3,26.8-50.6,56.3-80.9,56.3c4.3,2.6,69.6,46.8,69.6,46.8
				S408.4,467.2,402.1,419.2"/>
		</g>
		<path class="st3" d="M439.3,235.5c0,0-23.7,3-27-29.5c0,0,10.2-37.2-17.2-46.3c0,0-45.8,64.1-121.6,64.1
			c-20.4,0-55.9-20.7-70.6,18c0,0-6.3-6.1-5.8-19c0,0-10.1-41.5-7.3-49.6c9.8-28,25.7-64.9,106.3-84.7c0,0,124.4-20.3,137.3,55
			c0,0,23.1,1,15,51.4C448.5,195,454.9,220.2,439.3,235.5"/>
	</g>
</g>
</svg>
