<?xml version="1.0" encoding="utf-8"?>
<!-- Generator: Adobe Illustrator 21.1.0, SVG Export Plug-In . SVG Version: 6.00 Build 0)  -->
<svg version="1.1" id="Layer_1" xmlns="http://www.w3.org/2000/svg" xmlns:xlink="http://www.w3.org/1999/xlink" x="0px" y="0px"
	 viewBox="0 0 639.4 637.2" style="enable-background:new 0 0 639.4 637.2;" xml:space="preserve">
<style type="text/css">
	.st0{fill-rule:evenodd;clip-rule:evenodd;fill:#FFECF2;}
	.st1{fill:#FFDDCE;}
	.st2{fill:#FFCBBC;}
	.st3{fill:#FFBCA7;}
	.st4{fill:#F9A58B;}
	.st5{fill:#8BB9FF;}
	.st6{fill:#FF80AA;}
</style>
<path class="st0" d="M326.7,6.7C499.7,6.7,640,147,640,320c0,173-140.3,313.3-313.3,313.3S13.4,493.1,13.4,320
	C13.4,147,153.7,6.7,326.7,6.7z"/>
<g>
	<g>
		<path class="st1" d="M437.8,425.1c22.8-1,44.8-8.1,63.8-20.8c3.8-2.6,6.1-6.9,6.1-11.5V248.9H289.6c-2.4,0-4.7,0.6-6.8,1.8
			l-65,36.1c-8.1,4.5-14.1,12.3-16.5,21.2c-2.4,9-0.9,18.7,4,26.6c9.4,15.3,29.2,20.7,45.1,12.3l67.6-35.8c9.4-5,21-2.9,28.1,5
			L437.8,425.1z"/>
		<path class="st2" d="M326.7,308.5c7.2-0.7,14.4,2,19.4,7.6l91.6,109c22.8-1,44.8-8.1,63.8-20.8c3.8-2.6,6.1-6.9,6.1-11.5V248.9
			h-181V308.5z"/>
		<path class="st2" d="M427.9,407.3l-97.5-108.7l-40.8-49.7H145.7v143.9c0,4.4,2.1,8.5,5.6,11.1l122.5,91.9
			c12.2,9.2,27,13.9,41.8,13.9c7.8,0,15.5-1.3,23-3.9l4.6-2l4.8-18.2l22,6.7l34.2-15l6.1-13.6l18.5-1.2c4.7-5.3,8.1-11.8,9.5-19
			C440.9,430.5,437.1,417,427.9,407.3L427.9,407.3z"/>
		<path class="st3" d="M438.3,443.5c2.6-13-1.2-26.5-10.4-36.2l-97.5-108.7l-3.7-4.5v214.8c4-0.7,8-1.7,11.9-3l4.6-2l4.8-18.2
			l22,6.7l34.2-15l6.1-13.6l18.5-1.2C433.5,457.2,436.8,450.6,438.3,443.5L438.3,443.5z"/>
		<path class="st4" d="M428.8,462.5l-61.6-61.6c-5.4-5.4-14.3-5.4-19.7,0s-5.4,14.3,0,19.7l56.8,56.8l10.4-4.6
			C420.1,470.4,424.9,466.8,428.8,462.5L428.8,462.5z"/>
		<path class="st3" d="M304.7,436.9c-5.9,5-6.6,13.8-1.6,19.6l40.2,47.2l22.9-9.8l3.8-1.7l-45.7-53.8
			C319.3,432.7,310.6,432,304.7,436.9L304.7,436.9z"/>
		<path class="st5" d="M550.4,434.6h-38.1c-7.7,0-13.9-6.2-13.9-13.9V244.3c0-7.7,6.2-13.9,13.9-13.9h38.1c7.7,0,13.9,6.2,13.9,13.9
			v176.4C564.3,428.3,558.1,434.6,550.4,434.6z"/>
		<path class="st6" d="M141.1,434.6H103c-7.7,0-13.9-6.2-13.9-13.9V244.3c0-7.7,6.2-13.9,13.9-13.9h38.1c7.7,0,13.9,6.2,13.9,13.9
			v176.4C155,428.3,148.7,434.6,141.1,434.6z"/>
		<path class="st1" d="M289.6,248.9c-2.4,0-4.7,0.6-6.8,1.8l-65,36.1c-8.1,4.5-14.1,12.3-16.5,21.2c-2.4,9-0.9,18.7,4,26.6
			c9.4,15.3,29.2,20.7,45.1,12.3l67.6-35.8c9.4-5,21-2.9,28.1,5l81.8,91.2"/>
		<path class="st2" d="M326.7,308.5c7.2-0.7,14.4,2,19.4,7.6l81.8,91.2L326.7,291.4V308.5z"/>
		<path class="st4" d="M326.7,441.3v43l16.6,19.5l22.9-9.8l3.8-1.7L326.7,441.3z"/>
	</g>
</g>
</svg>
