<?xml version="1.0" encoding="utf-8"?>
<!-- Generator: Adobe Illustrator 21.1.0, SVG Export Plug-In . SVG Version: 6.00 Build 0)  -->
<svg version="1.1" id="Layer_1" xmlns="http://www.w3.org/2000/svg" xmlns:xlink="http://www.w3.org/1999/xlink" x="0px" y="0px"
	 viewBox="0 0 49 49" style="enable-background:new 0 0 49 49;" xml:space="preserve">
<style type="text/css">
	.st0{fill:#ffffff;}
</style>
<g>
	<path class="st0" d="M25,47.5c-12.8,0-23.3-10.4-23.3-23.3C1.8,11.4,12.2,1,25,1c12.8,0,23.3,10.4,23.3,23.3
		C48.3,37.1,37.9,47.5,25,47.5z M25,2.5c-12,0-21.8,9.8-21.8,21.8S13,46,25,46c12,0,21.8-9.8,21.8-21.8S37,2.5,25,2.5z"/>
</g>
<path class="st0" d="M30.6,13l-2.9,0c-3.3,0-5.4,2.2-5.4,5.5v2.6h-2.9c-0.3,0-0.5,0.2-0.5,0.5v3.7c0,0.3,0.2,0.5,0.5,0.5h2.9V35
	c0,0.3,0.2,0.5,0.5,0.5h3.8c0.3,0,0.5-0.2,0.5-0.5v-9.3h3.4c0.3,0,0.5-0.2,0.5-0.5l0-3.7c0-0.1,0-0.2-0.1-0.3
	c-0.1-0.1-0.2-0.1-0.3-0.1h-3.4v-2.2c0-1,0.2-1.6,1.6-1.6l2,0c0.3,0,0.5-0.2,0.5-0.5v-3.4C31.1,13.2,30.9,13,30.6,13z"/>
</svg>
