<?xml version="1.0" encoding="utf-8"?>
<!-- Generator: Adobe Illustrator 21.1.0, SVG Export Plug-In . SVG Version: 6.00 Build 0)  -->
<svg version="1.1" id="Layer_1" xmlns="http://www.w3.org/2000/svg" xmlns:xlink="http://www.w3.org/1999/xlink" x="0px" y="0px"
	 viewBox="0 0 37.2 37.2" style="enable-background:new 0 0 37.2 37.2;" xml:space="preserve">
<style type="text/css">
	.st0{fill:#000000;}
</style>
<path class="st0" d="M18.6,2.1c9.1,0,16.5,7.4,16.5,16.5s-7.4,16.5-16.5,16.5S2.1,27.7,2.1,18.6S9.5,2.1,18.6,2.1 M18.6,0.1
	C8.4,0.1,0.1,8.4,0.1,18.6s8.3,18.5,18.5,18.5s18.5-8.3,18.5-18.5S28.8,0.1,18.6,0.1L18.6,0.1z"/>
<path class="st0" d="M15.9,14.1c0,0.5,0,2.6,0,2.6H14v3.2h1.9v9.5h4v-9.5h2.7c0,0,0.2-1.5,0.4-3.2c-0.3,0-3,0-3,0s0-1.9,0-2.2
	s0.4-0.8,0.9-0.8c0.4,0,1.3,0,2.2,0c0-0.4,0-1.9,0-3.3c-1.1,0-2.4,0-2.9,0C15.8,10.4,15.9,13.6,15.9,14.1z"/>
</svg>
