<?xml version="1.0" encoding="utf-8"?>
<!-- Generator: Adobe Illustrator 21.1.0, SVG Export Plug-In . SVG Version: 6.00 Build 0)  -->
<svg version="1.1" id="Layer_1" xmlns="http://www.w3.org/2000/svg" xmlns:xlink="http://www.w3.org/1999/xlink" x="0px" y="0px"
	 viewBox="0 0 103 106" style="enable-background:new 0 0 103 106;" xml:space="preserve">
<style type="text/css">
	.st0{fill:#0097FF;}
</style>
<g>
	<g>
		<path class="st0" d="M42.1,57.6c-1.1,0-2,0.9-2,2v7.2l-1.8-3.4c-1.8-3.3-5.8-4.6-9.2-2.9c-2.9,1.5-4.4,4.7-3.6,7.8l3.6,14.8
			c0.8,3.5,2.3,6.7,4.4,9.6l7,9.6c0.4,0.5,1,0.8,1.6,0.8c0.4,0,0.8-0.1,1.2-0.4c0.9-0.6,1.1-1.9,0.4-2.7l-7-9.6
			c-1.8-2.5-3.1-5.2-3.8-8.2l-3.6-14.8c-0.3-1.4,0.3-2.8,1.6-3.4c1.5-0.7,3.2-0.2,4,1.3l5.5,10.2c0.4,0.8,1.3,1.2,2.2,1
			c0.9-0.2,1.5-1,1.5-1.9V59.6C44.1,58.5,43.2,57.6,42.1,57.6z M75,55.6c-1.2,0-2.2,0.3-3.2,0.8c-1-2.5-3.4-4.3-6.2-4.3
			c-1.2,0-2.4,0.3-3.3,0.9c-1.1-2.3-3.4-3.9-6-3.9c-1,0-1.9,0.2-2.7,0.6v-9.3c0-3.7-3-6.6-6.6-6.6c-3.7,0-6.6,3-6.6,6.6v3.4
			c0,1.1,0.9,2,2,2c1.1,0,2-0.9,2-2v-3.4c0-1.5,1.2-2.7,2.7-2.7s2.7,1.2,2.7,2.7V68c0,1.1,0.9,2,2,2c1.1,0,2-0.9,2-2V55.8
			c0-1.5,1.2-2.7,2.7-2.7c1.5,0,2.7,1.2,2.7,2.7V68c0,1.1,0.9,2,2,2c1.1,0,2-0.9,2-2v-9.2c0-1.5,1.2-2.7,2.7-2.7
			c1.5,0,2.7,1.2,2.7,2.7V68c0,1.1,0.9,2,2,2c1.1,0,2-0.9,2-2v-5.7c0-1.5,1.2-2.7,2.7-2.7c1.5,0,2.7,1.2,2.7,2.7v16.5
			c0,4.4-0.7,8.7-2,12.9l-2.8,8.8c-0.3,1,0.2,2.1,1.3,2.4c0.2,0.1,0.4,0.1,0.6,0.1c0.8,0,1.6-0.5,1.9-1.4l2.8-8.8
			c1.4-4.6,2.2-9.3,2.2-14.1V62.3C81.6,58.6,78.6,55.6,75,55.6z M101.3,13.4c-0.4-1.2-1.4-2.1-2.7-2.2l-6-0.9L90,4.8
			C89.5,3.7,88.3,3,87.1,3h0c-1.3,0-2.4,0.7-2.9,1.8l-2.7,5.4l-6,0.9c-1.2,0.2-2.3,1-2.7,2.2c-0.4,1.2-0.1,2.5,0.8,3.4L78,21l-1,6
			c-0.2,1.2,0.3,2.5,1.3,3.2c0.6,0.4,1.3,0.6,1.9,0.6c0.5,0,1-0.1,1.5-0.4l5.3-2.8l5.4,2.8c1.1,0.6,2.4,0.5,3.5-0.3
			c1-0.7,1.5-2,1.3-3.2l-1-6l4.3-4.2C101.4,15.8,101.7,14.6,101.3,13.4z M93.2,18.4c-0.8,0.8-1.1,1.8-0.9,2.9l0.9,5L88.6,24
			c-1-0.5-2.1-0.5-3.1,0L81,26.3l0.9-5c0.2-1.1-0.2-2.2-0.9-2.9l-3.7-3.6l5.1-0.7c1.1-0.2,2-0.8,2.5-1.8l2.3-4.6l2.3,4.6
			c0.5,1,1.4,1.6,2.5,1.8l5.1,0.7L93.2,18.4z M42.4,21l-1,6c-0.2,1.2,0.3,2.5,1.3,3.2c0.6,0.4,1.3,0.6,1.9,0.6c0.5,0,1-0.1,1.5-0.4
			l5.4-2.8l5.4,2.8c1.1,0.6,2.4,0.5,3.5-0.3c1-0.7,1.5-2,1.3-3.2l-1-6l4.3-4.2c0.9-0.9,1.2-2.2,0.8-3.4c-0.4-1.2-1.4-2.1-2.7-2.2
			l-6-0.9l-2.7-5.4C53.9,3.7,52.8,3,51.5,3h0c-1.3,0-2.4,0.7-2.9,1.8l-2.7,5.4l-6,0.9c-1.2,0.2-2.3,1-2.7,2.2
			c-0.4,1.2-0.1,2.5,0.8,3.4L42.4,21z M46.8,14.1c1.1-0.2,2-0.8,2.5-1.8l2.3-4.6l2.3,4.6c0.5,1,1.4,1.6,2.5,1.8l5.1,0.7l-3.7,3.6
			c-0.8,0.8-1.1,1.8-0.9,2.9l0.9,5L53,24c-1-0.5-2.1-0.5-3.1,0l-4.5,2.4l0.9-5c0.2-1.1-0.2-2.2-0.9-2.9l-3.7-3.6L46.8,14.1z
			 M26,26.9l-1-6l4.3-4.2c0.9-0.9,1.2-2.2,0.8-3.4c-0.4-1.2-1.4-2.1-2.7-2.2l-6-0.9l-2.7-5.4C18.3,3.7,17.2,3,15.9,3h0
			c-1.3,0-2.4,0.7-2.9,1.8l-2.7,5.4l-6,0.9c-1.2,0.2-2.3,1-2.7,2.2c-0.4,1.2-0.1,2.5,0.8,3.4L6.8,21l-1,6c-0.2,1.2,0.3,2.5,1.3,3.2
			c0.6,0.4,1.3,0.6,1.9,0.6c0.5,0,1-0.1,1.5-0.4l5.4-2.8l5.4,2.8c1.1,0.6,2.4,0.5,3.5-0.3C25.8,29.4,26.3,28.1,26,26.9z M22.1,18.4
			c-0.8,0.8-1.1,1.8-0.9,2.9l0.9,5L17.5,24c-1-0.5-2.1-0.5-3.1,0l-4.5,2.4l0.9-5c0.2-1.1-0.2-2.2-0.9-2.9l-3.7-3.6l5.1-0.7
			c1.1-0.2,2-0.8,2.5-1.8l2.3-4.6l2.3,4.6c0.5,1,1.4,1.6,2.5,1.8l5.1,0.7L22.1,18.4z M42.1,53.8c0.5,0,1-0.2,1.4-0.6
			c0.4-0.4,0.6-0.9,0.6-1.4c0-0.5-0.2-1-0.6-1.4c-0.4-0.4-0.9-0.6-1.4-0.6c-0.5,0-1,0.2-1.4,0.6c-0.4,0.4-0.6,0.9-0.6,1.4
			c0,0.5,0.2,1,0.6,1.4C41.1,53.6,41.6,53.8,42.1,53.8z"/>
	</g>
</g>
</svg>
