<?xml version="1.0" encoding="utf-8"?>
<!-- Generator: Adobe Illustrator 26.2.1, SVG Export Plug-In . SVG Version: 6.00 Build 0)  -->
<svg version="1.1" id="Layer_1" xmlns="http://www.w3.org/2000/svg" xmlns:xlink="http://www.w3.org/1999/xlink" x="0px" y="0px"
	 viewBox="0 0 171.3 39.9" style="enable-background:new 0 0 171.3 39.9;" xml:space="preserve">
<style type="text/css">
	.st0{fill:#FFFFFF;}
	.st1{fill:#2F6DF6;}
	.st2{fill:#2F6CF6;}
</style>
<g>
	<path class="st0" d="M20.9,27.3H6.7c-0.5,0-1.1-0.1-1.8-0.3c-0.6-0.2-1.2-0.5-1.8-0.9s-1-1-1.4-1.7c-0.4-0.7-0.6-1.6-0.6-2.6V7.7
		c0-0.3,0.1-0.5,0.2-0.8s0.2-0.5,0.4-0.6C2,6.1,2.2,6,2.4,5.9c0.2-0.1,0.5-0.2,0.8-0.2h17.7v3.9H5.1v12.2c0,0.5,0.1,0.9,0.4,1.2
		s0.7,0.4,1.2,0.4h14.1V27.3z M19.1,18.5H6.7v-4h12.4V18.5z"/>
	<path class="st0" d="M38.6,27.3h-3.9V16.5c0-0.5-0.1-0.9-0.4-1.2C34,15.1,33.6,15,33.1,15H28v12.4h-3.9V13c0-0.3,0.1-0.5,0.2-0.8
		c0.1-0.2,0.2-0.4,0.4-0.6c0.2-0.2,0.4-0.3,0.6-0.4s0.5-0.2,0.8-0.2h7.1c0.5,0,1.1,0.1,1.7,0.3c0.6,0.2,1.2,0.5,1.8,0.9V11H42
		c0.4,0,0.8,0,1.2,0.1c0.4,0.1,0.8,0.2,1.2,0.4c0.4,0.2,0.8,0.4,1.2,0.7c0.4,0.3,0.7,0.6,1,1c0.3,0.4,0.5,0.9,0.7,1.4
		s0.3,1.1,0.3,1.8v10.8h-3.9V16.5c0-0.5-0.1-0.9-0.4-1.2C42.9,15.1,42.5,15,42,15h-3.5c0.1,0.5,0.2,1,0.2,1.6V27.3z"/>
	<path class="st0" d="M85.2,7.7h-3.9V4.1h3.9V7.7z M85.2,27.3h-3.9V11h3.9V27.3z"/>
	<path class="st0" d="M96.1,27.3h-1.7c-0.6,0-1.2-0.1-1.8-0.3c-0.6-0.2-1.2-0.5-1.8-0.9c-0.6-0.4-1-1-1.4-1.7
		c-0.4-0.7-0.5-1.6-0.5-2.6V4.1h3.9v17.7c0,0.5,0.2,0.9,0.5,1.2c0.3,0.3,0.7,0.4,1.1,0.4h1.7V27.3z"/>
</g>
<g>
	<path class="st1" d="M70.1,28H57.4c-3.1,0-5.6-2.5-5.6-5.6v-7.7c0-3.1,2.5-5.6,5.6-5.6h12.7c3.1,0,5.6,2.5,5.6,5.6v7.7
		C75.7,25.5,73.2,28,70.1,28z M57.4,11c-2.1,0-3.7,1.7-3.7,3.7v7.7c0,2.1,1.7,3.7,3.7,3.7h12.7c2.1,0,3.7-1.7,3.7-3.7v-7.7
		c0-2.1-1.7-3.7-3.7-3.7H57.4z M67.2,20.2l4.6-3.5c0.4-0.3,0.5-0.9,0.2-1.3c-0.3-0.4-0.9-0.5-1.3-0.2l-4.6,3.5c-1.3,1-3.2,1-4.5,0
		L57,15.2c-0.4-0.3-1-0.2-1.3,0.2c-0.3,0.4-0.2,1,0.2,1.3l4.5,3.5c0,0,0,0,0,0c1,0.8,2.2,1.1,3.4,1.1C65,21.4,66.2,21,67.2,20.2z"/>
</g>
<g>
	<path class="st2" d="M117,16.5c0.1,0,0.2,0.1,0.3,0.2c0.1,0.1,0.1,0.2,0.1,0.3c0,0.1-0.1,0.2-0.2,0.3c-2.1,1.6-4.1,3.1-5.9,4.5
		c0.2,0.6,0.2,1.2,0.1,1.9c-0.2,1.2-0.6,2.3-1.2,3.4s-1.3,2.1-2,2.9c-0.8,0.8-1.5,1.6-2.4,2.2c-0.8,0.6-1.6,1.1-2.4,1.5
		c-0.8,0.3-1.4,0.5-2,0.6c-0.1,0-0.2,0-0.2,0c-0.7,0-1.1-0.3-1.3-0.8c-0.3-0.9,0.4-2.4,2.2-4.5c1.8-2.1,4.5-4.6,8.2-7.6
		c-0.4-0.8-1.2-1.5-2.4-2.2c-1.2-0.7-3.1-1.6-5.7-2.7c-0.7-0.3-1.3-0.5-1.7-0.7c-1-0.4-1.7-1-2.1-1.7c-0.4-0.7-0.4-1.6-0.1-2.5
		c0.4-1.2,1.2-2.5,2.6-3.9c1.4-1.4,2.9-2.7,4.5-3.7c1.6-1.1,3.3-1.9,4.9-2.5c1.7-0.6,2.9-0.8,3.9-0.6c0.2,0,0.4,0.1,0.6,0.2
		c0.2,0.1,0.3,0.2,0.5,0.4c0.2,0.2,0.3,0.4,0.4,0.8c0.1,0.3,0.1,0.7,0,1.2c0,0.1,0,0.1-0.1,0.2s-0.1,0.1-0.2,0.1s-0.1,0-0.2,0
		c-0.1,0-0.2-0.1-0.3-0.2s-0.1-0.2-0.1-0.3c0.1-0.5,0-0.9-0.1-1.1c-0.2-0.2-0.4-0.4-0.7-0.5c-0.5-0.1-1.2-0.1-2.1,0.1
		s-1.8,0.6-2.9,1.1S107,4,105.8,4.7c-1.8,1.2-3.3,2.4-4.5,3.7c-1.2,1.3-2,2.4-2.3,3.5c-0.5,1.5,0.1,2.6,1.8,3.3
		c0.4,0.2,0.9,0.4,1.7,0.7c0.9,0.4,1.6,0.7,2,0.9s1,0.5,1.7,0.8s1.3,0.6,1.7,0.8c0.4,0.2,0.8,0.5,1.3,0.8c0.5,0.3,0.8,0.6,1.1,0.9
		s0.5,0.6,0.7,0.9c1.7-1.4,3.6-2.9,5.7-4.4C116.8,16.5,116.9,16.4,117,16.5z M110.6,23.5c0.1-0.4,0.1-0.8,0-1.2
		c-2.9,2.4-5.3,4.5-7,6.3c-1,1.1-1.8,2-2.3,2.9c-0.5,0.8-0.8,1.4-0.6,1.7c0.1,0.2,0.3,0.2,0.7,0.2c0.5,0,1-0.2,1.7-0.5
		c0.7-0.3,1.4-0.8,2.2-1.4c0.8-0.6,1.5-1.3,2.2-2.1c0.7-0.8,1.3-1.7,1.9-2.7C110,25.7,110.4,24.6,110.6,23.5z"/>
	<path class="st2" d="M122,16.6c0.1,0,0.2,0,0.3,0c0.1,0.1,0.2,0.1,0.2,0.3c0,0.1,0,0.2-0.1,0.3c-0.4,0.6-0.9,1.3-1.4,2
		c-0.5,0.7-1.2,1.3-1.8,1.8c-0.7,0.5-1.3,0.8-1.7,0.8c-0.2,0-0.3,0-0.4-0.1c-0.9-0.4-1-2.1-0.3-5.1c0-0.1,0.1-0.2,0.2-0.3
		c0.1-0.1,0.2-0.1,0.3,0c0.1,0,0.2,0.1,0.2,0.2c0.1,0.1,0.1,0.2,0,0.3c-0.2,0.7-0.3,1.3-0.4,1.8c-0.1,0.5-0.1,0.9-0.1,1.2
		c0,0.3,0,0.5,0.1,0.7c0,0.2,0.1,0.3,0.1,0.3c0,0,0.1,0.1,0.1,0.1c0.4,0.2,1-0.2,2-1.1c0.9-0.9,1.8-1.9,2.5-3.1
		C121.8,16.7,121.9,16.6,122,16.6z M117.4,14.9c-0.4,0-0.5-0.2-0.4-0.5c0.1-0.3,0.3-0.4,0.5-0.5c0.3-0.1,0.6,0,0.6,0.3
		c0.1,0.3,0,0.5-0.3,0.6C117.8,14.9,117.6,14.9,117.4,14.9z"/>
	<path class="st2" d="M130.6,16.6c0.1,0,0.2,0.1,0.2,0.2c0.1,0.1,0.1,0.2,0.1,0.3c0,0.1-0.1,0.2-0.2,0.3c-2.5,1.7-4.4,3.2-5.9,4.4
		c-0.9,5.5-1.9,9.6-3,12.5c-1.2,2.8-2.3,4.4-3.4,4.7c-0.2,0-0.3,0.1-0.4,0.1c-0.4,0-0.8-0.2-1.1-0.6c-0.6-0.8-0.8-2-0.6-3.7
		c0.2-1.8,0.8-3.7,1.8-5.7c1.5-2.8,3.5-5.4,6.1-7.7c0.2-1.2,0.4-2.5,0.5-3.8c-0.4,0.7-0.8,1.3-1.2,1.8c-0.6,0.8-1.1,1.1-1.5,1
		c-0.3-0.1-0.5-0.4-0.6-1c0-0.5,0-1.2,0.2-2c0.2-0.8,0.5-1.6,0.9-2.4s0.9-1.3,1.4-1.6c0.7-0.4,1.4-0.3,2,0.4
		c0.1,0.1,0.1,0.2,0.1,0.3c0,0.1,0,0.2-0.1,0.3c-0.1,0.1-0.2,0.1-0.3,0.1c-0.1,0-0.2,0-0.3-0.1c-0.5-0.5-1-0.5-1.5,0
		c-0.6,0.5-1,1.4-1.4,2.6s-0.5,2-0.3,2.4c0.2-0.1,0.4-0.3,0.6-0.6c0.9-1.2,1.6-2.3,2.1-3.3c0.1-0.2,0.3-0.2,0.5-0.2
		c0.2,0.1,0.3,0.2,0.3,0.4c-0.2,1.7-0.4,3.2-0.6,4.8c1.3-1.1,3-2.4,5.2-3.9C130.4,16.6,130.5,16.6,130.6,16.6z M118.2,38.2
		c0.4-0.1,0.8-0.4,1.2-1c0.4-0.6,0.9-1.5,1.4-2.6c0.5-1.1,1-2.7,1.6-4.8c0.5-2.1,1-4.4,1.5-7.1c-2.2,2.1-3.9,4.4-5.2,6.8
		c-0.4,0.8-0.8,1.6-1,2.3c-0.3,0.8-0.5,1.5-0.6,2.1c-0.1,0.6-0.2,1.2-0.2,1.8s0,1,0.1,1.4c0.1,0.4,0.2,0.7,0.4,0.9
		C117.7,38.2,118,38.3,118.2,38.2z"/>
	<path class="st2" d="M137.9,16.7c0.1,0,0.2,0,0.3,0c0.1,0.1,0.2,0.1,0.2,0.2c0,0.1,0,0.2,0,0.3c-0.5,0.9-0.9,1.5-1.2,2.1
		c-0.3,0.5-0.7,0.9-1.1,1.2c-0.4,0.3-0.7,0.4-1.1,0.4c-0.7-0.1-1.2-0.9-1.6-2.3c-0.3-1-0.5-1.5-0.7-1.5c0,0-0.1,0-0.2,0.1
		c-0.1,0.1-0.2,0.2-0.4,0.4c-0.2,0.2-0.3,0.5-0.5,0.9c-0.2,0.4-0.5,0.9-0.8,1.6c-0.3,0.7-0.7,1.5-1,2.5c-0.1,0.2-0.2,0.3-0.4,0.3
		c0,0-0.1,0-0.1,0c-0.2-0.1-0.3-0.2-0.3-0.5c0.1-1.2,0.7-3.4,1.6-6.6c0.1-0.3,0.2-0.6,0.2-0.8c0-0.1,0.1-0.2,0.2-0.2s0.2-0.1,0.3,0
		c0.1,0,0.2,0.1,0.2,0.2s0.1,0.2,0,0.3c0,0.1-0.1,0.4-0.2,0.8c-0.3,1.1-0.5,2-0.7,2.6c0.4-0.9,0.8-1.5,1.2-1.8s0.6-0.5,1-0.5
		c0.4,0,0.6,0.2,0.9,0.6c0.2,0.4,0.4,0.9,0.6,1.5c0.3,1.1,0.6,1.7,1,1.7c0.2,0,0.4-0.1,0.6-0.3c0.2-0.2,0.5-0.5,0.8-1s0.5-0.8,0.6-1
		c0.1-0.2,0.3-0.6,0.5-0.9C137.7,16.8,137.8,16.7,137.9,16.7z"/>
	<path class="st2" d="M145.8,16.7c0.1,0,0.2,0,0.3,0c0.1,0.1,0.2,0.1,0.2,0.2c0,0.1,0,0.2,0,0.3c-1.5,3.2-2.8,4.8-3.9,4.8
		c-0.1,0-0.1,0-0.2,0c-0.9-0.2-1.5-1.5-1.7-3.9c-0.7,1-1.3,1.7-1.8,2.3c-0.5,0.5-0.9,0.7-1.2,0.5c-0.3-0.1-0.5-0.5-0.5-1.1
		c0-0.5,0.1-1.1,0.3-1.9s0.5-1.4,1-2.1c0.4-0.7,0.9-1.1,1.4-1.3c0.7-0.3,1.4,0,2,0.8c0.1,0.1,0.1,0.2,0.1,0.3s-0.1,0.2-0.1,0.3
		c-0.1,0.1-0.2,0.1-0.3,0.1c-0.1,0-0.2-0.1-0.3-0.1c-0.5-0.6-1-0.7-1.5-0.3c-0.6,0.4-1,1.2-1.4,2.3c-0.4,1.1-0.5,1.9-0.4,2.3
		c0.1-0.1,0.2-0.2,0.3-0.3c0.6-0.6,1.2-1.5,2-2.7c0.2-0.3,0.3-0.4,0.4-0.5c0.1-0.1,0.3-0.2,0.4-0.1c0.2,0.1,0.3,0.2,0.3,0.4
		c0,0.7,0.1,1.3,0.2,1.9c0.1,0.5,0.2,1,0.2,1.2s0.2,0.5,0.3,0.7c0.1,0.2,0.2,0.3,0.3,0.4c0.1,0.1,0.1,0.1,0.2,0.1
		c0.2,0,0.4-0.1,0.7-0.3s0.7-0.7,1.1-1.4c0.5-0.7,0.9-1.6,1.4-2.6C145.6,16.8,145.7,16.8,145.8,16.7z"/>
	<path class="st2" d="M162.6,8.8c0.1,0.1,0.1,0.2,0.1,0.3c0,0.1-0.1,0.2-0.2,0.3c-0.2,0.1-0.3,0.1-0.5,0c-0.7-0.2-5.3-0.3-13.9-0.1
		c-0.9,3.9-1.8,8.2-2.7,12.8c-1.1,5.5-1.8,9.3-2,11.4c0,0,0.1,0,0.1,0c0.1,0,0.2,0.1,0.2,0.2c0,0.1,0,0.2,0,0.3
		c-0.1,0.2-0.1,0.4-0.2,0.5c0,0.1-0.1,0.2-0.2,0.3c-0.1,0.1-0.2,0.2-0.3,0.2c0,0-0.1,0-0.1,0c-0.2-0.1-0.3-0.2-0.3-0.5
		c0-0.2,0-0.6,0.1-1c0.1-0.6,0.2-1.5,0.4-2.6c0.3-2.2,0.9-5,1.6-8.4c0.9-4.7,1.9-9.1,2.8-13.2c-0.9,0-2.1,0-3.5,0.1
		c-2.2,0.1-3.5,0.1-3.9,0.1c-0.1,0-0.2,0-0.3-0.1c-0.1-0.1-0.1-0.2-0.1-0.3c0-0.1,0-0.1,0.1-0.2c0-0.1,0.1-0.1,0.1-0.2
		c0.1,0,0.1-0.1,0.2-0.1c0.4,0,1.7,0,3.9-0.1c1.4,0,2.6-0.1,3.7-0.1c0.4-1.9,0.8-3.5,1.2-4.8c0-0.1,0.1-0.2,0.2-0.3
		c0.1-0.1,0.2-0.1,0.3,0c0.1,0,0.2,0.1,0.2,0.2c0.1,0.1,0.1,0.2,0,0.3c-0.3,1.3-0.7,2.8-1.1,4.6c4.1-0.1,7.3-0.2,9.4-0.1
		c2.1,0,3.4,0.1,4,0.1C162.1,8.6,162.5,8.7,162.6,8.8z"/>
	<path class="st2" d="M155.8,16.8c0.1,0,0.2,0,0.3,0.1c0.1,0.1,0.1,0.1,0.2,0.3c0,0.1,0,0.2,0,0.3c-0.2,0.3-0.3,0.6-0.5,0.9
		c-0.2,0.3-0.5,0.7-0.9,1.3c-0.4,0.5-0.7,1-1.1,1.4c-0.3,0.4-0.7,0.7-1.1,1c-0.4,0.3-0.7,0.5-1,0.5c-0.1,0-0.2,0-0.3-0.1
		c-0.7-0.3-0.8-1.4-0.6-3.3c-0.5,0.6-0.9,1.1-1.2,1.5c-0.5,0.5-1,0.5-1.4,0.2c-0.4-0.3-0.5-0.9-0.5-1.7c0-0.8,0.3-1.6,0.7-2.3
		c0.1-0.1,0.1-0.2,0.2-0.2c0.1,0,0.2,0,0.3,0c0.1,0.1,0.2,0.1,0.2,0.2c0,0.1,0,0.2,0,0.3c-0.2,0.4-0.4,0.8-0.5,1.3
		c-0.1,0.4-0.1,0.8-0.1,1.1c0,0.3,0.1,0.5,0.2,0.6c0.1,0.1,0.2,0,0.4-0.2c0.4-0.3,0.8-0.9,1.3-1.7c0.1-0.1,0.2-0.2,0.2-0.3
		c0-0.1,0.1-0.1,0.2-0.2s0.1-0.2,0.2-0.2c0,0,0.1-0.1,0.1-0.1c0.1,0,0.1-0.1,0.2,0c0.1,0,0.1,0,0.2,0.1c0.2,0.1,0.3,0.2,0.3,0.5
		s0,0.6-0.1,1c-0.2,0.8-0.2,1.4-0.2,1.8c0,0.4,0.1,0.7,0.1,0.8s0.1,0.1,0.1,0.1c0,0,0.1,0,0.2,0c0.1-0.1,0.2-0.1,0.4-0.2
		c0.1-0.1,0.3-0.3,0.5-0.4c0.2-0.2,0.4-0.4,0.6-0.7c0.2-0.3,0.5-0.5,0.7-0.9c0.2-0.3,0.5-0.7,0.8-1.1c0.3-0.4,0.5-0.8,0.8-1.3
		C155.6,16.9,155.7,16.9,155.8,16.8z"/>
	<path class="st2" d="M163.9,16.7c0.1,0,0.2,0,0.3,0c0.1,0.1,0.2,0.1,0.2,0.2c0,0.1,0,0.2,0,0.3c-0.4,0.8-0.8,1.7-1.3,2.6
		c-0.5,0.9-1,1.8-1.5,2.7c-0.6,0.9-1.1,1.6-1.7,2.2c-0.6,0.6-1,0.9-1.4,0.9c-0.1,0-0.2,0-0.3-0.1c-0.6-0.2-0.7-1.1-0.5-2.7
		c0.2-1.5,0.7-3.5,1.5-6.2c0,0,0,0,0,0c0,0,0,0,0,0c-0.3,0.2-0.6,0.4-0.8,0.5c-0.2,0.1-0.5,0.2-0.8,0.4c-0.3,0.1-0.7,0.2-1,0.2
		s-0.6-0.1-0.8-0.3c-0.5-0.4-0.8-0.9-0.8-1.6c0-0.7,0.2-1.4,0.7-2.3c0.3-0.5,0.7-1,1.1-1.4c0.4-0.4,0.8-0.5,1.1-0.3
		c0.2,0.1,0.3,0.3,0.3,0.6c0,0.3-0.1,0.8-0.4,1.5c-0.3,0.7-0.7,1.7-1.4,2.9c0.4,0.1,1.1-0.3,2.1-0.9c0.2-0.1,0.3-0.2,0.4-0.3
		c0.1-0.1,0.2-0.1,0.3-0.2s0.2-0.1,0.3-0.1c0.1,0,0.2,0,0.2,0.1c0.2,0.2,0.2,0.5,0.1,0.9c-1.4,4.5-1.9,7.2-1.6,8.1
		c0,0.1,0,0.1,0.1,0.1c0.1,0,0.3-0.1,0.5-0.3c0.2-0.2,0.5-0.5,0.8-0.9c0.3-0.4,0.7-1,1.1-1.6s0.8-1.3,1.3-2.2s0.9-1.8,1.4-2.8
		C163.7,16.8,163.8,16.7,163.9,16.7z M155.9,15.2c-0.1,0.5-0.1,0.9,0.1,1.2c1-1.8,1.5-3.1,1.6-3.7c-0.2,0.1-0.4,0.3-0.6,0.5
		c-0.2,0.2-0.4,0.5-0.7,0.9S156,14.8,155.9,15.2z"/>
	<path class="st2" d="M170.1,16.7c0.1,0,0.2,0,0.3,0.1c0.1,0.1,0.1,0.2,0.2,0.3c0,0.1,0,0.2-0.1,0.3c-1.6,2.3-3,3.9-4.3,4.8
		c-0.5,0.4-1,0.6-1.5,0.6c-0.4,0-0.7-0.1-1-0.3c-0.2-0.1-0.3-0.3-0.4-0.5s-0.2-0.5-0.3-0.9c-0.1-0.4-0.1-0.9-0.1-1.5
		c0.1-0.6,0.2-1.4,0.5-2.2v0c0.4-1.3,0.9-2.3,1.4-3.1c0.6-0.8,1-1.2,1.5-1.2c0.3,0,0.5,0.1,0.6,0.4c0.2,0.4,0,1-0.5,1.8
		c-0.5,0.8-1.3,1.6-2.3,2.5c-0.2,0.6-0.3,1.1-0.4,1.6c-0.1,0.5-0.1,0.9-0.1,1.1c0,0.3,0.1,0.5,0.1,0.7c0.1,0.2,0.1,0.4,0.2,0.4
		c0.1,0.1,0.1,0.2,0.2,0.2c0.4,0.3,0.9,0.2,1.6-0.3c1.2-0.9,2.6-2.4,4.1-4.6C169.9,16.7,170,16.7,170.1,16.7z M166.1,13.9
		c-0.5,0.3-1,1-1.4,2.1C165.4,15.1,165.9,14.4,166.1,13.9z"/>
</g>
</svg>
