<?xml version="1.0" encoding="utf-8"?>
<!-- Generator: Adobe Illustrator 23.0.3, SVG Export Plug-In . SVG Version: 6.00 Build 0)  -->
<svg version="1.1" id="Layer_1" xmlns="http://www.w3.org/2000/svg" xmlns:xlink="http://www.w3.org/1999/xlink" x="0px" y="0px"
	 viewBox="0 0 20 19" enable-background="new 0 0 20 19" xml:space="preserve">
<path fill-rule="evenodd" clip-rule="evenodd" fill="#FFFFFF" d="M4.55098,2.91667L6.25,7.08333H2.91667L4.55098,2.91667z
	 M0.54645,10.78532c-0.43267-0.14715-0.65359-0.59247-0.4952-0.99365l3.67646-9.28981
	C3.73105,0.49334,3.73939,0.48792,3.74272,0.4794C3.7669,0.42441,3.80441,0.37949,3.84026,0.33302
	C3.8661,0.29817,3.88611,0.25945,3.91862,0.22847c0.03752-0.03485,0.0842-0.05731,0.12672-0.08442
	c0.04585-0.02943,0.0892-0.06273,0.14172-0.08364c0.01001-0.00387,0.01584-0.01084,0.02501-0.01472
	c0.04002-0.01394,0.08087-0.01007,0.12088-0.01859C4.39048,0.01549,4.448,0.00077,4.50553,0
	C4.56305,0,4.62057,0.01394,4.6781,0.02556c0.04002,0.00774,0.08003,0.0031,0.11921,0.01704
	c0.00917,0.0031,0.01501,0.01007,0.02418,0.01317c0.05835,0.02246,0.10587,0.05731,0.1559,0.08906
	c0.03835,0.02556,0.08086,0.04415,0.11504,0.0759c0.03502,0.03175,0.05669,0.07203,0.0842,0.10843
	c0.03502,0.04569,0.07253,0.08829,0.09671,0.14173C5.2775,0.4794,5.285,0.48405,5.28834,0.49257l3.82319,9.28981
	c0.16423,0.39963-0.05085,0.8465-0.48019,0.99985c-0.09837,0.03485-0.19841,0.05111-0.29845,0.05111
	c-0.33513,0-0.65109-0.18974-0.77781-0.49799L6.80394,8.51069H2.33383l-0.71862,1.81536
	c-0.12338,0.31289-0.44268,0.50728-0.78198,0.50728C0.73819,10.83333,0.64065,10.81784,0.54645,10.78532z M19.30556,1.66667
	h-6.94445c-0.38333,0-0.69444-0.37333-0.69444-0.83334c0-0.46,0.31111-0.83333,0.69444-0.83333h6.94445
	C19.68889,0,20,0.37333,20,0.83333C20,1.29333,19.68889,1.66667,19.30556,1.66667z M19.30556,5.83333h-6.94445
	C11.97778,5.83333,11.66667,5.46,11.66667,5s0.31111-0.83333,0.69444-0.83333h6.94445C19.68889,4.16667,20,4.54,20,5
	S19.68889,5.83333,19.30556,5.83333z M19.30556,10h-6.94445c-0.38333,0-0.69444-0.37333-0.69444-0.83333
	c0-0.46,0.31111-0.83334,0.69444-0.83334h6.94445C19.68889,8.33333,20,8.70667,20,9.16667C20,9.62667,19.68889,10,19.30556,10z
	 M19.2,14.16667H0.8c-0.4416,0-0.8-0.37333-0.8-0.83334C0,12.87333,0.3584,12.5,0.8,12.5h18.4c0.4416,0,0.8,0.37333,0.8,0.83333
	C20,13.79333,19.6416,14.16667,19.2,14.16667z M19.2,18.33333H0.8C0.3584,18.33333,0,17.96,0,17.5s0.3584-0.83333,0.8-0.83333h18.4
	c0.4416,0,0.8,0.37333,0.8,0.83333S19.6416,18.33333,19.2,18.33333z"/>
</svg>
