<?xml version="1.0" encoding="utf-8"?>
<!-- Generator: Adobe Illustrator 21.1.0, SVG Export Plug-In . SVG Version: 6.00 Build 0)  -->
<svg version="1.1" id="Layer_1" xmlns="http://www.w3.org/2000/svg" xmlns:xlink="http://www.w3.org/1999/xlink" x="0px" y="0px"
	 viewBox="0 0 37.2 37.2" style="enable-background:new 0 0 37.2 37.2;" xml:space="preserve">
<style type="text/css">
	.st0{fill:#000000;}
</style>
<path class="st0" d="M18.6,2.1c9.1,0,16.5,7.4,16.5,16.5s-7.4,16.5-16.5,16.5S2.1,27.7,2.1,18.6S9.5,2.1,18.6,2.1 M18.6,0.1
	C8.4,0.1,0.1,8.4,0.1,18.6s8.3,18.5,18.5,18.5s18.5-8.3,18.5-18.5S28.8,0.1,18.6,0.1L18.6,0.1z"/>
<g>
	<g>
		<path class="st0" d="M11.9,9.4c-1.2,0-2.1,1-2.1,2.1c0,1.2,0.9,2.1,2.1,2.1c1.2,0,2.1-1,2.1-2.1C14,10.3,13,9.4,11.9,9.4z
			 M10,27.1h3.6V15.3H10V27.1z M23,15c-1.8,0-3,1-3.5,1.9h0v-1.6H16v11.8h3.6v-5.8c0-1.5,0.3-3,2.2-3c1.9,0,1.9,1.8,1.9,3.1v5.7h3.6
			v-6.5C27.3,17.4,26.7,15,23,15z"/>
	</g>
</g>
</svg>
