<?xml version="1.0" encoding="utf-8"?>
<!-- Generator: Adobe Illustrator 21.1.0, SVG Export Plug-In . SVG Version: 6.00 Build 0)  -->
<svg version="1.1" id="Layer_1" xmlns="http://www.w3.org/2000/svg" xmlns:xlink="http://www.w3.org/1999/xlink" x="0px" y="0px"
	 viewBox="0 0 352.6 54.7" style="enable-background:new 0 0 352.6 54.7;" xml:space="preserve">
<style type="text/css">
	.st0{fill:#0097FF;}
	.st1{fill:#FFFFFF;}
</style>
<g>
	<g>
		<path class="st0" d="M63.1,24.5c0.2-1.1,0.3-2.3,0.3-3.4c0-10.4-8.2-18.8-18.2-18.8c-6.4,0-12.4,3.5-15.6,9.1
			c-4.4-1.5-8.9-0.8-12.7,1.8c-3.7,2.7-6,6.9-6.1,11.4C5.9,27,2.5,32.1,2.5,37.8c0,1,0.2,1.9,0.4,2.9l0,0
			c1.3,6.8,7.2,11.8,13.9,11.8h40.5c7.8,0,14.3-6.6,14.3-14.6C71.7,32.1,68.3,26.9,63.1,24.5z"/>
	</g>
</g>
<g>
	<path class="st1" d="M53.8,44.8H20.4c-0.8,0-1.5-0.7-1.5-1.5V23.6c0-0.6,0.3-1.1,0.8-1.3c0.5-0.3,1.1-0.2,1.5,0.1l14.9,10.5
		l12.9-10H26.6v-3h26.7c0.6,0,1.2,0.4,1.4,1s0,1.3-0.5,1.6L37,35.9c-0.5,0.4-1.2,0.4-1.8,0l-13.4-9.4v15.4h30.5v-13h3v14.4
		C55.3,44.1,54.6,44.8,53.8,44.8z"/>
</g>
<path class="st1" d="M90.6,9.5h17.6l-0.4,3.1H93.5l-1.2,8.8h13.3l-0.4,3.1H91.8l-1.4,10h15l-0.4,3.1H86.6L90.6,9.5z"/>
<path class="st1" d="M111.5,23.4c0.1-0.8,0.2-1.6,0.3-2.4c0-0.7,0.1-1.4,0.2-2h3c-0.1,0.5-0.1,1-0.2,1.5s-0.1,1-0.2,1.5h0.1
	c0.3-0.4,0.6-0.9,1.1-1.3c0.4-0.4,1-0.8,1.5-1.1c0.6-0.3,1.2-0.6,1.9-0.8c0.7-0.2,1.4-0.3,2.2-0.3c1,0,1.8,0.1,2.5,0.4
	c0.6,0.3,1.2,0.6,1.6,0.9c0.4,0.4,0.7,0.7,0.9,1.1c0.2,0.4,0.3,0.8,0.4,1.1c0.8-1.1,1.8-2,2.8-2.6s2.2-0.9,3.6-0.9
	c1.3,0,2.4,0.2,3.2,0.5c0.8,0.4,1.5,0.9,2,1.5c0.5,0.7,0.7,1.5,0.8,2.5s0.1,2-0.1,3.2l-1.5,11.2h-3.1l1.5-11.1
	c0.1-0.6,0.1-1.3,0.1-1.9s-0.2-1.1-0.5-1.6s-0.7-0.9-1.2-1.1c-0.5-0.3-1.3-0.4-2.2-0.4c-0.7,0-1.3,0.1-1.9,0.4
	c-0.6,0.3-1.2,0.6-1.7,1.1s-0.9,1-1.3,1.7s-0.6,1.4-0.7,2.2l-1.5,10.7H122l1.5-10.5c0.3-2.1,0.2-3.5-0.2-4.4
	c-0.4-0.9-1.3-1.3-2.6-1.3c-2,0-3.6,0.7-4.7,2s-1.8,3-2.1,5.1l-1.3,9h-3.1L111.5,23.4z"/>
<path class="st1" d="M145.3,21.4c1.1-1,2.3-1.7,3.7-2.2s2.7-0.7,4.1-0.7c2.7,0,4.6,0.6,5.7,1.9c1,1.3,1.4,3.3,1,5.9l-1.1,8
	c-0.1,0.5-0.1,1.1-0.2,1.6c0,0.6,0,1.1,0,1.6h-3c-0.1-0.4-0.1-0.9,0-1.4s0.1-1,0.2-1.4h-0.1c-0.7,1-1.7,1.7-2.8,2.3
	s-2.4,0.9-3.8,0.9c-1,0-1.8-0.1-2.6-0.4c-0.8-0.2-1.5-0.6-2-1c-0.6-0.5-1-1-1.3-1.7s-0.4-1.5-0.2-2.4c0.2-1.5,0.8-2.7,1.7-3.6
	s2-1.5,3.2-1.9s2.5-0.7,3.9-0.8c1.4-0.1,2.6-0.2,3.8-0.2h1.2l0.1-0.6c0.2-1.3,0-2.4-0.8-3c-0.7-0.7-1.8-1-3.2-1c-1,0-2,0.2-3,0.5
	s-1.9,0.8-2.8,1.5L145.3,21.4z M153.2,28.6c-2,0-3.6,0.3-4.8,0.8c-1.2,0.6-2,1.5-2.1,2.7c-0.2,1.2,0.1,2,0.8,2.5s1.6,0.7,2.8,0.7
	c0.9,0,1.7-0.2,2.4-0.5s1.3-0.7,1.9-1.2c0.5-0.5,1-1.1,1.3-1.8s0.6-1.4,0.7-2.2l0.2-1.2h-3.2V28.6z"/>
<path class="st1" d="M166.7,19h3.1l-2.6,18.5h-3.1L166.7,19z M167,11.8c0.1-0.6,0.4-1.1,0.9-1.6c0.5-0.4,1.1-0.7,1.7-0.7
	c0.6,0,1.1,0.2,1.5,0.7c0.4,0.4,0.5,1,0.4,1.6c-0.1,0.7-0.4,1.2-0.9,1.6c-0.5,0.4-1,0.6-1.7,0.6s-1.2-0.2-1.5-0.6
	C167,13,166.9,12.4,167,11.8z"/>
<path class="st1" d="M177.8,7.6h3.1l-4.2,29.9h-3.1L177.8,7.6z"/>
<path class="st0" d="M199.9,14.5c-0.4-0.9-1.1-1.5-1.9-2c-0.9-0.4-1.8-0.6-2.8-0.6c-0.7,0-1.5,0.1-2.2,0.3s-1.4,0.5-2,0.8
	c-0.6,0.4-1.1,0.9-1.6,1.5c-0.4,0.6-0.7,1.3-0.8,2.1c-0.1,0.6-0.1,1.2,0.1,1.7c0.1,0.5,0.4,0.9,0.8,1.3s1,0.8,1.7,1.1
	c0.7,0.3,1.6,0.7,2.7,1c1,0.3,2,0.7,3,1.1s1.8,0.9,2.5,1.5s1.2,1.4,1.5,2.3s0.4,2.1,0.2,3.4c-0.2,1.4-0.7,2.6-1.3,3.6
	s-1.5,1.9-2.6,2.6c-1,0.7-2.1,1.2-3.4,1.5c-1.2,0.3-2.5,0.5-3.7,0.5c-0.8,0-1.6-0.1-2.4-0.2c-0.8-0.1-1.6-0.4-2.3-0.7
	s-1.4-0.7-1.9-1.2c-0.6-0.5-1.1-1.1-1.4-1.8L185,32c0.4,1,1.2,1.8,2.2,2.3s2.1,0.8,3.3,0.8c0.7,0,1.4-0.1,2.2-0.3s1.5-0.5,2.1-0.9
	s1.2-0.9,1.6-1.5c0.4-0.6,0.7-1.3,0.8-2.1c0.1-0.9,0.1-1.6-0.2-2.1s-0.6-1-1.1-1.4s-1.3-0.8-2.1-1.1c-0.9-0.3-1.9-0.7-3.1-1.1
	c-1-0.3-1.8-0.7-2.6-1.1s-1.5-0.9-2-1.5s-0.9-1.3-1.1-2.1c-0.2-0.8-0.3-1.8-0.1-3c0.2-1.3,0.6-2.5,1.3-3.5s1.5-1.8,2.5-2.5
	s2.1-1.2,3.3-1.5s2.4-0.5,3.6-0.5c1.6,0,3,0.2,4.2,0.7s2.3,1.3,3.1,2.6L199.9,14.5z"/>
<path class="st0" d="M207.7,19h3.1l-2.6,18.5h-3.1L207.7,19z M208,11.8c0.1-0.6,0.4-1.1,0.9-1.6c0.5-0.4,1.1-0.7,1.7-0.7
	c0.6,0,1.1,0.2,1.5,0.7c0.4,0.4,0.5,1,0.4,1.6c-0.1,0.7-0.4,1.2-0.9,1.6c-0.5,0.4-1,0.6-1.7,0.6s-1.2-0.2-1.5-0.6
	C208.1,13,207.9,12.4,208,11.8z"/>
<path class="st0" d="M232.9,36.7c-0.4,3.4-1.7,5.9-3.6,7.7s-4.6,2.6-7.9,2.6c-1.8,0-3.4-0.3-4.8-0.8c-1.4-0.5-2.7-1.4-3.8-2.7
	l2.6-2.5c0.8,1.1,1.8,1.9,2.8,2.4s2.2,0.8,3.7,0.8c1.4,0,2.5-0.2,3.5-0.6c1-0.4,1.8-1,2.4-1.7s1.1-1.5,1.4-2.4
	c0.3-0.9,0.6-1.8,0.7-2.8l0.4-2.4h-0.1c-0.9,1.2-2,2.1-3.3,2.6s-2.5,0.8-3.7,0.8c-1.5,0-2.8-0.2-3.9-0.7s-2.1-1.1-2.9-2
	c-0.8-0.8-1.3-1.8-1.6-3s-0.4-2.4-0.2-3.8c0.2-1.5,0.6-2.9,1.3-4.1c0.6-1.2,1.5-2.2,2.5-3.1c1-0.8,2.1-1.5,3.4-1.9
	c1.3-0.4,2.6-0.7,4.1-0.7c1.3,0,2.5,0.3,3.6,0.9s1.9,1.5,2.4,2.8h0.1l0.4-3.2h3.1L232.9,36.7z M217.9,28.3c-0.1,1-0.1,1.8,0.2,2.6
	c0.2,0.8,0.6,1.5,1.1,2.1s1.1,1.1,1.9,1.4c0.8,0.3,1.6,0.5,2.5,0.5c1.1,0,2-0.2,2.9-0.6s1.6-0.9,2.3-1.5c0.6-0.6,1.2-1.3,1.6-2.1
	c0.4-0.8,0.7-1.7,0.8-2.6c0.1-1,0.1-1.9-0.1-2.8c-0.2-0.8-0.5-1.6-1-2.2s-1.1-1.1-1.9-1.4c-0.8-0.3-1.6-0.5-2.6-0.5
	s-1.9,0.2-2.7,0.5s-1.6,0.8-2.3,1.5c-0.7,0.6-1.2,1.3-1.7,2.2C218.3,26.4,218,27.3,217.9,28.3z"/>
<path class="st0" d="M240.5,23.4c0.1-0.8,0.2-1.6,0.3-2.4c0-0.7,0.1-1.4,0.2-2h3c-0.1,0.5-0.1,1-0.2,1.5s-0.1,1-0.2,1.5h0.1
	c0.3-0.4,0.6-0.9,1.1-1.3c0.4-0.4,1-0.8,1.5-1.1c0.6-0.3,1.2-0.6,1.9-0.8c0.7-0.2,1.4-0.3,2.2-0.3c1.2,0,2.2,0.2,3.1,0.6
	c0.8,0.4,1.5,0.9,2,1.5c0.5,0.7,0.8,1.5,1,2.4c0.1,0.9,0.1,2,0,3.1l-1.6,11.4h-3.1l1.5-11.1c0.2-1.6,0-2.8-0.5-3.7
	c-0.6-0.9-1.6-1.3-3-1.3c-2,0-3.6,0.7-4.7,2c-1.1,1.3-1.8,3-2.1,5.1l-1.3,9h-3.1L240.5,23.4z"/>
<path class="st0" d="M262.6,21.4c1.1-1,2.3-1.7,3.7-2.2c1.4-0.5,2.7-0.7,4.1-0.7c2.7,0,4.6,0.6,5.7,1.9c1,1.3,1.4,3.3,1,5.9l-1.1,8
	c-0.1,0.5-0.1,1.1-0.2,1.6c0,0.6,0,1.1,0,1.6h-3c-0.1-0.4-0.1-0.9,0-1.4s0.1-1,0.2-1.4h-0.1c-0.7,1-1.7,1.7-2.8,2.3
	c-1.1,0.6-2.4,0.9-3.8,0.9c-1,0-1.8-0.1-2.6-0.4c-0.8-0.2-1.5-0.6-2-1c-0.6-0.5-1-1-1.3-1.7s-0.4-1.5-0.2-2.4
	c0.2-1.5,0.8-2.7,1.7-3.6c0.9-0.9,2-1.5,3.2-1.9s2.5-0.7,3.9-0.8c1.4-0.1,2.6-0.2,3.8-0.2h1.2l0.1-0.6c0.2-1.3,0-2.4-0.8-3
	c-0.7-0.7-1.8-1-3.2-1c-1,0-2,0.2-3,0.5s-1.9,0.8-2.8,1.5L262.6,21.4z M270.5,28.6c-2,0-3.6,0.3-4.8,0.8c-1.2,0.6-2,1.5-2.1,2.7
	c-0.2,1.2,0.1,2,0.8,2.5c0.7,0.5,1.6,0.7,2.8,0.7c0.9,0,1.7-0.2,2.4-0.5c0.7-0.3,1.3-0.7,1.9-1.2c0.5-0.5,1-1.1,1.3-1.8
	s0.6-1.4,0.7-2.2l0.2-1.2h-3.2V28.6z"/>
<path class="st0" d="M293.5,21.6H288l-1.3,9.3c-0.1,0.6-0.1,1.2-0.2,1.7c0,0.5,0,1,0.1,1.3c0.1,0.4,0.3,0.7,0.7,0.9
	c0.3,0.2,0.9,0.3,1.5,0.3c0.4,0,0.9-0.1,1.4-0.2c0.5-0.1,1-0.3,1.4-0.5l-0.3,2.8c-0.6,0.2-1.2,0.4-1.8,0.5c-0.7,0.1-1.3,0.2-1.9,0.2
	c-1.1,0-2-0.1-2.6-0.4c-0.6-0.3-1.1-0.7-1.4-1.2s-0.4-1.2-0.5-2c0-0.8,0-1.6,0.2-2.6l1.4-10.2h-4l0.4-2.6h4l0.8-5.3h3.1l-0.8,5.3
	h5.5L293.5,21.6z"/>
<path class="st0" d="M311.8,33.2c-0.1,0.8-0.2,1.6-0.3,2.4c0,0.7-0.1,1.4-0.2,2h-2.9c0.1-0.5,0.1-1,0.2-1.5s0.1-1,0.2-1.5h-0.1
	c-0.3,0.4-0.6,0.9-1.1,1.3c-0.4,0.4-1,0.8-1.5,1.1c-0.6,0.3-1.2,0.6-1.9,0.8c-0.7,0.2-1.4,0.3-2.2,0.3c-1.2,0-2.2-0.2-3.1-0.6
	s-1.5-0.9-2-1.5s-0.8-1.5-1-2.4c-0.1-0.9-0.1-2,0-3.1l1.6-11.4h3.1l-1.5,11.1c-0.2,1.6,0,2.8,0.5,3.7c0.6,0.9,1.6,1.3,3,1.3
	c2,0,3.6-0.7,4.7-2s1.8-3,2.1-5.1l1.3-9h3.1L311.8,33.2z"/>
<path class="st0" d="M319,23.4c0.1-0.8,0.2-1.6,0.3-2.4c0-0.7,0.1-1.4,0.2-2h3c-0.1,0.5-0.1,1-0.2,1.5s-0.1,1-0.2,1.5h0.1
	c0.3-0.4,0.6-0.9,1.1-1.3c0.4-0.4,1-0.8,1.5-1.1c0.6-0.3,1.2-0.6,1.9-0.8c0.7-0.2,1.4-0.3,2.2-0.3c0.2,0,0.4,0,0.6,0
	s0.4,0.1,0.6,0.2l-0.6,3.1c-0.5-0.2-1-0.2-1.6-0.2c-1.9,0-3.4,0.6-4.4,1.8c-1,1.2-1.7,2.9-2,5l-1.3,9h-3.1L319,23.4z"/>
<path class="st0" d="M347.3,34.2c-1.3,1.4-2.6,2.4-4,3s-3,0.9-4.7,0.9c-1.5,0-2.7-0.3-3.8-0.8c-1.1-0.5-2-1.2-2.7-2.1
	c-0.7-0.9-1.2-1.9-1.4-3.1c-0.3-1.2-0.3-2.5-0.1-3.8c0.2-1.4,0.6-2.7,1.3-3.9c0.6-1.2,1.5-2.2,2.4-3.1c1-0.9,2.1-1.5,3.3-2
	s2.5-0.7,3.9-0.7c1.3,0,2.5,0.2,3.5,0.7c1,0.4,1.9,1.1,2.5,1.9s1.1,1.8,1.4,3s0.3,2.6,0.1,4.1l-0.2,1h-15c-0.1,0.8,0,1.6,0.3,2.3
	c0.2,0.7,0.6,1.4,1,1.9s1,1,1.7,1.3s1.4,0.5,2.3,0.5c1.3,0,2.5-0.2,3.5-0.7s1.9-1.2,2.8-2.1L347.3,34.2z M345.7,26.6
	c0.2-1.6-0.2-2.9-1-3.8c-0.8-1-2.1-1.4-3.8-1.4c-1.7,0-3.2,0.5-4.4,1.4s-2,2.2-2.4,3.8H345.7z"/>
<g>
	<g>
		<path class="st1" d="M306.6,50.7c0.2,0,0.4,0.1,0.6,0.2c0.1,0.2,0.2,0.4,0.2,0.6c0,0.2-0.2,0.4-0.3,0.6c-0.2,0.2-0.4,0.2-0.6,0.2
			s-0.4-0.1-0.5-0.2c-0.2-0.2-0.2-0.4-0.2-0.6c0-0.2,0.1-0.4,0.3-0.6C306.2,50.7,306.4,50.7,306.6,50.7z"/>
		<path class="st1" d="M317.5,44.5c-0.2-0.4-0.6-0.7-1-0.9s-0.8-0.3-1.3-0.3s-1.1,0.1-1.5,0.3c-0.5,0.2-0.9,0.5-1.3,0.9
			s-0.7,0.8-1,1.3s-0.4,1-0.5,1.5c-0.1,0.6-0.1,1.1,0,1.6s0.3,0.9,0.6,1.3s0.6,0.7,1.1,0.9c0.4,0.2,0.9,0.3,1.5,0.3s1.1-0.1,1.6-0.4
			c0.5-0.2,1-0.6,1.4-1l0.8,0.7c-0.5,0.6-1.1,1-1.8,1.3c-0.7,0.3-1.4,0.4-2.2,0.4c-0.7,0-1.3-0.1-1.9-0.4c-0.6-0.3-1-0.6-1.4-1.1
			s-0.7-1-0.8-1.6c-0.2-0.6-0.2-1.3-0.1-2.1c0.1-0.7,0.3-1.4,0.7-2s0.8-1.2,1.3-1.6c0.5-0.5,1.1-0.8,1.7-1.1s1.3-0.4,2.1-0.4
			c0.7,0,1.3,0.1,1.9,0.4s1,0.6,1.4,1.2L317.5,44.5z"/>
		<path class="st1" d="M320.6,41.8h1.1l-1.5,10.4h-1.1L320.6,41.8z"/>
		<path class="st1" d="M322.5,49c0.1-0.5,0.2-1,0.5-1.4c0.2-0.4,0.5-0.8,0.9-1.1s0.7-0.5,1.2-0.7c0.4-0.2,0.9-0.2,1.4-0.2
			s0.9,0.1,1.3,0.2c0.4,0.2,0.7,0.4,1,0.7s0.5,0.7,0.6,1.1c0.1,0.4,0.1,0.9,0.1,1.4c-0.1,0.5-0.2,1-0.5,1.4
			c-0.2,0.4-0.5,0.8-0.9,1.1c-0.3,0.3-0.7,0.5-1.2,0.7c-0.4,0.2-0.9,0.2-1.4,0.2s-0.9-0.1-1.3-0.2c-0.4-0.2-0.7-0.4-1-0.7
			s-0.5-0.7-0.6-1.1C322.4,50,322.4,49.5,322.5,49z M323.6,49c0,0.3,0,0.7,0,0.9s0.2,0.5,0.4,0.8c0.2,0.2,0.4,0.4,0.6,0.5
			c0.3,0.1,0.6,0.2,0.9,0.2s0.7-0.1,1-0.2c0.3-0.1,0.6-0.3,0.8-0.5c0.2-0.2,0.4-0.5,0.6-0.8c0.1-0.3,0.2-0.6,0.3-0.9
			c0-0.3,0-0.7,0-0.9s-0.2-0.5-0.4-0.8c-0.2-0.2-0.4-0.4-0.6-0.5c-0.3-0.1-0.6-0.2-0.9-0.2s-0.7,0.1-1,0.2c-0.3,0.1-0.6,0.3-0.8,0.5
			c-0.2,0.2-0.4,0.5-0.6,0.8C323.8,48.3,323.7,48.7,323.6,49z"/>
		<path class="st1" d="M336.4,50.7c0,0.3-0.1,0.6-0.1,0.8s0,0.5-0.1,0.7h-1c0-0.2,0-0.3,0.1-0.5c0-0.2,0-0.4,0.1-0.5l0,0
			c-0.1,0.2-0.2,0.3-0.4,0.5s-0.3,0.3-0.5,0.4s-0.4,0.2-0.7,0.3c-0.2,0.1-0.5,0.1-0.8,0.1c-0.4,0-0.8-0.1-1.1-0.2
			c-0.3-0.1-0.5-0.3-0.7-0.5s-0.3-0.5-0.3-0.8c-0.1-0.3,0-0.7,0-1.1l0.6-4h1.1l-0.5,3.9c-0.1,0.5,0,1,0.2,1.3s0.5,0.5,1,0.5
			c0.7,0,1.2-0.2,1.6-0.7s0.6-1.1,0.7-1.8L336,46h1.1L336.4,50.7z"/>
		<path class="st1" d="M343.8,51.1L343.8,51.1c-0.3,0.4-0.6,0.7-1.1,0.9c-0.5,0.3-1,0.4-1.6,0.4c-0.5,0-0.9-0.1-1.2-0.3
			c-0.4-0.2-0.7-0.4-0.9-0.7c-0.2-0.3-0.4-0.7-0.5-1.1c-0.1-0.4-0.1-0.9-0.1-1.4s0.2-0.9,0.4-1.4s0.5-0.8,0.8-1.1s0.7-0.5,1.2-0.7
			c0.4-0.2,0.9-0.3,1.4-0.3s0.9,0.1,1.2,0.3c0.4,0.2,0.7,0.5,0.9,0.8l0,0l0.7-4.9h1.1L344.6,52h-1.1L343.8,51.1z M344.1,49
			c0-0.3,0-0.7,0-0.9s-0.2-0.5-0.4-0.8c-0.2-0.2-0.4-0.4-0.6-0.5c-0.3-0.1-0.6-0.2-0.9-0.2s-0.7,0.1-1,0.2c-0.3,0.1-0.6,0.3-0.8,0.5
			c-0.2,0.2-0.4,0.5-0.6,0.8s-0.3,0.6-0.3,0.9c0,0.3,0,0.7,0,0.9s0.2,0.5,0.4,0.8c0.2,0.2,0.4,0.4,0.6,0.5c0.3,0.1,0.6,0.2,0.9,0.2
			s0.7-0.1,1-0.2c0.3-0.1,0.6-0.3,0.8-0.5c0.2-0.2,0.4-0.5,0.6-0.8C343.9,49.7,344,49.3,344.1,49z"/>
	</g>
</g>
</svg>
