<?xml version="1.0" encoding="utf-8"?>
<!-- Generator: Adobe Illustrator 26.2.1, SVG Export Plug-In . SVG Version: 6.00 Build 0)  -->
<svg version="1.1" id="Layer_1" xmlns="http://www.w3.org/2000/svg" xmlns:xlink="http://www.w3.org/1999/xlink" x="0px" y="0px"
	 viewBox="0 0 171.3 41.4" style="enable-background:new 0 0 171.3 41.4;" xml:space="preserve">
<style type="text/css">
	.st0{fill:#2D4061;}
	.st1{fill:#2F6DF6;}
	.st2{fill:#2F6CF6;}
</style>
<g>
	<path class="st0" d="M20.7,28.3H6.6c-0.5,0-1.1-0.1-1.8-0.3c-0.6-0.2-1.2-0.5-1.8-0.9s-1-1-1.4-1.7c-0.4-0.7-0.6-1.6-0.6-2.6V8.6
		c0-0.3,0.1-0.5,0.2-0.8c0.1-0.2,0.2-0.5,0.4-0.6S2,6.9,2.3,6.8C2.5,6.7,2.8,6.7,3,6.7h17.7v3.9H5v12.2c0,0.5,0.1,0.9,0.4,1.2
		s0.7,0.4,1.2,0.4h14.1V28.3z M18.9,19.5H6.6v-4h12.4V19.5z"/>
	<path class="st0" d="M38.5,28.3h-3.9V17.5c0-0.5-0.1-0.9-0.4-1.2c-0.3-0.3-0.7-0.4-1.2-0.4h-5.1v12.4h-3.9V13.9
		c0-0.3,0.1-0.5,0.2-0.8c0.1-0.2,0.2-0.4,0.4-0.6c0.2-0.2,0.4-0.3,0.6-0.4s0.5-0.2,0.8-0.2H33c0.5,0,1.1,0.1,1.7,0.3
		c0.6,0.2,1.2,0.5,1.8,0.9V12h5.3c0.4,0,0.8,0,1.2,0.1s0.8,0.2,1.2,0.4c0.4,0.2,0.8,0.4,1.2,0.7c0.4,0.3,0.7,0.6,1,1
		c0.3,0.4,0.5,0.9,0.7,1.4c0.2,0.5,0.3,1.1,0.3,1.8v10.8h-3.9V17.5c0-0.5-0.1-0.9-0.4-1.2c-0.3-0.3-0.7-0.4-1.2-0.4h-3.5
		c0.1,0.5,0.2,1,0.2,1.6V28.3z"/>
	<path class="st0" d="M85,8.6h-3.9V5.1H85V8.6z M85,28.3h-3.9V12H85V28.3z"/>
	<path class="st0" d="M96,28.3h-1.7c-0.6,0-1.2-0.1-1.8-0.3c-0.6-0.2-1.2-0.5-1.8-0.9c-0.6-0.4-1-1-1.4-1.7
		c-0.4-0.7-0.5-1.6-0.5-2.6V5.1h3.9v17.7c0,0.5,0.2,0.9,0.5,1.2s0.7,0.4,1.1,0.4H96V28.3z"/>
</g>
<g>
	<path class="st1" d="M70,29H57.3c-3.1,0-5.6-2.5-5.6-5.6v-7.7c0-3.1,2.5-5.6,5.6-5.6H70c3.1,0,5.6,2.5,5.6,5.6v7.7
		C75.6,26.4,73.1,29,70,29z M57.3,11.9c-2.1,0-3.7,1.7-3.7,3.7v7.7c0,2.1,1.7,3.7,3.7,3.7H70c2.1,0,3.7-1.7,3.7-3.7v-7.7
		c0-2.1-1.7-3.7-3.7-3.7H57.3z M67,21.2l4.6-3.5c0.4-0.3,0.5-0.9,0.2-1.3c-0.3-0.4-0.9-0.5-1.3-0.2l-4.6,3.5c-1.3,1-3.2,1-4.5,0
		l-4.5-3.5c-0.4-0.3-1-0.2-1.3,0.2c-0.3,0.4-0.2,1,0.2,1.3l4.5,3.5c0,0,0,0,0,0c1,0.8,2.2,1.1,3.4,1.1S66,21.9,67,21.2z"/>
</g>
<g>
	<path class="st2" d="M116.9,17.4c0.1,0,0.2,0.1,0.3,0.2s0.1,0.2,0.1,0.3c0,0.1-0.1,0.2-0.2,0.3c-2.1,1.6-4.1,3.1-5.9,4.5
		c0.2,0.6,0.2,1.2,0.1,1.9c-0.2,1.2-0.6,2.3-1.2,3.4s-1.3,2.1-2,2.9s-1.5,1.6-2.4,2.2c-0.8,0.6-1.6,1.1-2.4,1.5
		c-0.8,0.3-1.4,0.5-2,0.6c-0.1,0-0.2,0-0.2,0c-0.7,0-1.1-0.3-1.3-0.8c-0.3-0.9,0.4-2.4,2.2-4.5c1.8-2.1,4.5-4.6,8.2-7.6
		c-0.4-0.8-1.2-1.5-2.4-2.2c-1.2-0.7-3.1-1.6-5.7-2.7c-0.7-0.3-1.3-0.5-1.7-0.7c-1-0.4-1.7-1-2.1-1.7c-0.4-0.7-0.4-1.6-0.1-2.5
		c0.4-1.2,1.2-2.5,2.6-3.9c1.4-1.4,2.9-2.7,4.5-3.7c1.6-1.1,3.3-1.9,4.9-2.5c1.7-0.6,2.9-0.8,3.9-0.6c0.2,0,0.4,0.1,0.6,0.2
		c0.2,0.1,0.3,0.2,0.5,0.4c0.2,0.2,0.3,0.4,0.4,0.8c0.1,0.3,0.1,0.7,0,1.2c0,0.1,0,0.1-0.1,0.2c0,0.1-0.1,0.1-0.2,0.1
		c-0.1,0-0.1,0-0.2,0c-0.1,0-0.2-0.1-0.3-0.2c-0.1-0.1-0.1-0.2-0.1-0.3c0.1-0.5,0-0.9-0.1-1.1c-0.2-0.2-0.4-0.4-0.7-0.5
		c-0.5-0.1-1.2-0.1-2.1,0.1C111,2.9,110,3.3,109,3.8c-1.1,0.5-2.2,1.1-3.3,1.9c-1.8,1.2-3.3,2.4-4.5,3.7c-1.2,1.3-2,2.4-2.3,3.5
		c-0.5,1.5,0.1,2.6,1.8,3.3c0.4,0.2,0.9,0.4,1.7,0.7c0.9,0.4,1.6,0.7,2,0.9s1,0.5,1.7,0.8c0.7,0.3,1.3,0.6,1.7,0.8s0.8,0.5,1.3,0.8
		s0.8,0.6,1.1,0.9c0.3,0.3,0.5,0.6,0.7,0.9c1.7-1.4,3.6-2.9,5.7-4.4C116.7,17.4,116.8,17.4,116.9,17.4z M110.5,24.4
		c0.1-0.4,0.1-0.8,0-1.2c-2.9,2.4-5.3,4.5-7,6.3c-1,1.1-1.8,2-2.3,2.9c-0.5,0.8-0.8,1.4-0.6,1.7c0.1,0.2,0.3,0.2,0.7,0.2
		c0.5,0,1-0.2,1.7-0.5c0.7-0.3,1.4-0.8,2.2-1.4c0.8-0.6,1.5-1.3,2.2-2.1c0.7-0.8,1.3-1.7,1.9-2.7C109.9,26.6,110.3,25.6,110.5,24.4z
		"/>
	<path class="st2" d="M121.9,17.5c0.1,0,0.2,0,0.3,0s0.2,0.1,0.2,0.3c0,0.1,0,0.2-0.1,0.3c-0.4,0.6-0.9,1.3-1.4,2
		c-0.5,0.7-1.2,1.3-1.8,1.8s-1.3,0.8-1.7,0.8c-0.2,0-0.3,0-0.4-0.1c-0.9-0.4-1-2.1-0.3-5.1c0-0.1,0.1-0.2,0.2-0.3s0.2-0.1,0.3,0
		c0.1,0,0.2,0.1,0.2,0.2c0.1,0.1,0.1,0.2,0,0.3c-0.2,0.7-0.3,1.3-0.4,1.8c-0.1,0.5-0.1,0.9-0.1,1.2c0,0.3,0,0.5,0.1,0.7
		c0,0.2,0.1,0.3,0.1,0.3c0,0,0.1,0.1,0.1,0.1c0.4,0.2,1-0.2,2-1.1s1.8-1.9,2.5-3.1C121.7,17.6,121.8,17.6,121.9,17.5z M117.3,15.9
		c-0.4,0-0.5-0.2-0.4-0.5c0.1-0.3,0.3-0.4,0.5-0.5c0.3-0.1,0.6,0,0.6,0.3c0.1,0.3,0,0.5-0.3,0.6C117.6,15.8,117.5,15.9,117.3,15.9z"
		/>
	<path class="st2" d="M130.5,17.5c0.1,0,0.2,0.1,0.2,0.2c0.1,0.1,0.1,0.2,0.1,0.3c0,0.1-0.1,0.2-0.2,0.3c-2.5,1.7-4.4,3.2-5.9,4.4
		c-0.9,5.5-1.9,9.6-3,12.5c-1.2,2.8-2.3,4.4-3.4,4.7c-0.2,0-0.3,0.1-0.4,0.1c-0.4,0-0.8-0.2-1.1-0.6c-0.6-0.8-0.8-2-0.6-3.7
		c0.2-1.8,0.8-3.7,1.8-5.7c1.5-2.8,3.5-5.4,6.1-7.7c0.2-1.2,0.4-2.5,0.5-3.8c-0.4,0.7-0.8,1.3-1.2,1.8c-0.6,0.8-1.1,1.1-1.5,1
		c-0.3-0.1-0.5-0.4-0.6-0.9c0-0.5,0-1.2,0.2-2s0.5-1.6,0.9-2.4c0.4-0.8,0.9-1.3,1.4-1.6c0.7-0.4,1.4-0.3,2,0.4
		c0.1,0.1,0.1,0.2,0.1,0.3s0,0.2-0.1,0.3c-0.1,0.1-0.2,0.1-0.3,0.1c-0.1,0-0.2,0-0.3-0.1c-0.5-0.5-1-0.5-1.5,0
		c-0.6,0.5-1,1.4-1.4,2.6s-0.5,2-0.3,2.4c0.2-0.1,0.4-0.3,0.6-0.6c0.9-1.2,1.6-2.3,2.1-3.3c0.1-0.2,0.3-0.2,0.5-0.2
		c0.2,0.1,0.3,0.2,0.3,0.4c-0.2,1.7-0.4,3.2-0.6,4.8c1.3-1.1,3-2.4,5.2-3.9C130.3,17.5,130.4,17.5,130.5,17.5z M118.1,39.2
		c0.4-0.1,0.8-0.4,1.2-1c0.4-0.6,0.9-1.5,1.4-2.6c0.5-1.1,1-2.7,1.6-4.8s1-4.4,1.5-7.1c-2.2,2.1-3.9,4.4-5.2,6.8
		c-0.4,0.8-0.8,1.6-1,2.3c-0.3,0.8-0.5,1.5-0.6,2.1c-0.1,0.6-0.2,1.2-0.2,1.8c0,0.5,0,1,0.1,1.4c0.1,0.4,0.2,0.7,0.4,0.9
		C117.6,39.2,117.8,39.2,118.1,39.2z"/>
	<path class="st2" d="M137.8,17.6c0.1,0,0.2,0,0.3,0c0.1,0.1,0.2,0.1,0.2,0.2c0,0.1,0,0.2,0,0.3c-0.5,0.9-0.9,1.5-1.2,2.1
		c-0.3,0.5-0.7,0.9-1.1,1.2c-0.4,0.3-0.7,0.4-1.1,0.4c-0.7-0.1-1.2-0.9-1.6-2.3c-0.3-1-0.5-1.5-0.7-1.5c0,0-0.1,0-0.2,0.1
		c-0.1,0.1-0.2,0.2-0.4,0.4s-0.3,0.5-0.5,0.9c-0.2,0.4-0.5,0.9-0.8,1.6c-0.3,0.7-0.7,1.5-1,2.5c-0.1,0.2-0.2,0.3-0.4,0.3
		c0,0-0.1,0-0.1,0c-0.2-0.1-0.3-0.2-0.3-0.5c0.1-1.2,0.7-3.4,1.6-6.6c0.1-0.3,0.2-0.6,0.2-0.8c0-0.1,0.1-0.2,0.2-0.2
		c0.1-0.1,0.2-0.1,0.3,0s0.2,0.1,0.2,0.2c0.1,0.1,0.1,0.2,0,0.3c0,0.1-0.1,0.4-0.2,0.8c-0.3,1.1-0.5,2-0.7,2.6
		c0.4-0.9,0.8-1.5,1.2-1.8s0.6-0.5,1-0.5c0.4,0,0.6,0.2,0.9,0.6c0.2,0.4,0.4,0.9,0.6,1.5c0.3,1.1,0.6,1.7,1,1.7
		c0.2,0,0.4-0.1,0.6-0.3c0.2-0.2,0.5-0.5,0.8-1c0.3-0.4,0.5-0.8,0.6-1c0.1-0.2,0.3-0.6,0.5-0.9C137.6,17.7,137.7,17.7,137.8,17.6z"
		/>
	<path class="st2" d="M145.6,17.7c0.1,0,0.2,0,0.3,0c0.1,0.1,0.2,0.1,0.2,0.2s0,0.2,0,0.3c-1.5,3.2-2.8,4.8-4,4.8
		c-0.1,0-0.1,0-0.2,0c-0.9-0.2-1.5-1.5-1.7-3.9c-0.7,1-1.3,1.7-1.8,2.3c-0.5,0.5-0.9,0.7-1.2,0.5c-0.3-0.1-0.5-0.5-0.5-1.1
		c0-0.5,0.1-1.1,0.3-1.9c0.2-0.7,0.5-1.4,1-2.1c0.4-0.7,0.9-1.1,1.4-1.3c0.7-0.3,1.4,0,2,0.8c0.1,0.1,0.1,0.2,0.1,0.3
		s-0.1,0.2-0.1,0.3c-0.1,0.1-0.2,0.1-0.3,0.1s-0.2-0.1-0.3-0.1c-0.5-0.6-1-0.7-1.5-0.3c-0.6,0.4-1,1.2-1.4,2.3
		c-0.4,1.1-0.5,1.9-0.4,2.3c0.1-0.1,0.2-0.2,0.3-0.3c0.6-0.6,1.2-1.5,2-2.7c0.2-0.3,0.3-0.4,0.4-0.5c0.1-0.1,0.3-0.2,0.4-0.1
		c0.2,0.1,0.3,0.2,0.3,0.4c0,0.7,0.1,1.3,0.2,1.9c0.1,0.5,0.2,1,0.2,1.2c0.1,0.3,0.2,0.5,0.3,0.7c0.1,0.2,0.2,0.3,0.3,0.4
		c0.1,0.1,0.1,0.1,0.2,0.1c0.2,0,0.4-0.1,0.7-0.3c0.3-0.2,0.7-0.7,1.1-1.4s0.9-1.6,1.4-2.6C145.4,17.8,145.5,17.7,145.6,17.7z"/>
	<path class="st2" d="M162.4,9.8c0.1,0.1,0.1,0.2,0.1,0.3s-0.1,0.2-0.2,0.3c-0.2,0.1-0.3,0.1-0.5,0c-0.7-0.2-5.3-0.3-13.9-0.1
		c-0.9,3.9-1.8,8.2-2.7,12.8c-1.1,5.5-1.8,9.3-2,11.4c0,0,0.1,0,0.1,0c0.1,0,0.2,0.1,0.2,0.2c0,0.1,0,0.2,0,0.3
		c-0.1,0.2-0.1,0.4-0.2,0.5c0,0.1-0.1,0.2-0.2,0.3s-0.2,0.2-0.3,0.2c0,0-0.1,0-0.1,0c-0.2-0.1-0.3-0.2-0.3-0.5s0-0.6,0.1-1
		c0.1-0.6,0.2-1.5,0.4-2.6c0.3-2.2,0.9-5,1.6-8.4c0.9-4.7,1.9-9.1,2.8-13.2c-0.9,0-2.1,0-3.5,0.1c-2.2,0.1-3.5,0.1-3.9,0.1
		c-0.1,0-0.2,0-0.3-0.1c-0.1-0.1-0.1-0.2-0.1-0.3c0-0.1,0-0.1,0.1-0.2c0-0.1,0.1-0.1,0.1-0.2c0.1,0,0.1-0.1,0.2-0.1
		c0.4,0,1.7,0,3.9-0.1c1.4,0,2.6-0.1,3.7-0.1c0.4-1.9,0.8-3.5,1.2-4.8c0-0.1,0.1-0.2,0.2-0.3c0.1-0.1,0.2-0.1,0.3,0
		c0.1,0,0.2,0.1,0.2,0.2c0.1,0.1,0.1,0.2,0,0.3c-0.3,1.3-0.7,2.8-1.1,4.6c4.1-0.1,7.3-0.2,9.4-0.1s3.4,0.1,4,0.1
		C162,9.5,162.3,9.6,162.4,9.8z"/>
	<path class="st2" d="M155.6,17.8c0.1,0,0.2,0,0.3,0.1c0.1,0.1,0.1,0.1,0.2,0.3s0,0.2,0,0.3c-0.2,0.3-0.3,0.6-0.5,0.9
		s-0.5,0.7-0.9,1.3c-0.4,0.5-0.7,1-1.1,1.4c-0.3,0.4-0.7,0.7-1.1,1c-0.4,0.3-0.7,0.5-1,0.5c-0.1,0-0.2,0-0.3-0.1
		c-0.7-0.3-0.8-1.4-0.6-3.3c-0.5,0.6-0.9,1.1-1.2,1.5c-0.5,0.5-1,0.5-1.4,0.2c-0.4-0.3-0.5-0.9-0.5-1.7c0-0.8,0.3-1.6,0.7-2.3
		c0.1-0.1,0.1-0.2,0.2-0.2s0.2,0,0.3,0c0.1,0.1,0.2,0.1,0.2,0.2s0,0.2,0,0.3c-0.2,0.4-0.4,0.8-0.5,1.3s-0.1,0.8-0.1,1.1
		c0,0.3,0.1,0.5,0.2,0.6c0.1,0.1,0.2,0,0.4-0.2c0.4-0.3,0.8-0.9,1.3-1.7c0.1-0.1,0.2-0.2,0.2-0.3c0-0.1,0.1-0.1,0.2-0.2
		c0.1-0.1,0.1-0.2,0.2-0.2c0,0,0.1-0.1,0.1-0.1c0.1,0,0.1-0.1,0.2,0c0.1,0,0.1,0,0.2,0.1c0.2,0.1,0.3,0.2,0.3,0.5s0,0.6-0.1,1
		c-0.2,0.8-0.2,1.4-0.2,1.8s0.1,0.7,0.1,0.8c0,0.1,0.1,0.1,0.1,0.1c0,0,0.1,0,0.2,0c0.1-0.1,0.2-0.1,0.4-0.2s0.3-0.3,0.5-0.4
		c0.2-0.2,0.4-0.4,0.6-0.7s0.5-0.5,0.7-0.9c0.2-0.3,0.5-0.7,0.8-1.1c0.3-0.4,0.5-0.8,0.8-1.3C155.5,17.9,155.5,17.8,155.6,17.8z"/>
	<path class="st2" d="M163.8,17.6c0.1,0,0.2,0,0.3,0c0.1,0.1,0.2,0.1,0.2,0.2c0,0.1,0,0.2,0,0.3c-0.4,0.8-0.8,1.7-1.3,2.6
		c-0.5,0.9-1,1.8-1.5,2.7c-0.6,0.9-1.1,1.6-1.7,2.2c-0.6,0.6-1,0.9-1.4,0.9c-0.1,0-0.2,0-0.3-0.1c-0.6-0.2-0.7-1.1-0.5-2.7
		c0.2-1.5,0.7-3.5,1.5-6.2c0,0,0,0,0,0c0,0,0,0,0,0c-0.3,0.2-0.6,0.4-0.8,0.5c-0.2,0.1-0.5,0.2-0.8,0.4c-0.3,0.1-0.7,0.2-1,0.2
		c-0.3,0-0.6-0.1-0.8-0.3c-0.5-0.4-0.8-0.9-0.8-1.6s0.2-1.4,0.7-2.3c0.3-0.5,0.7-1,1.1-1.4c0.4-0.4,0.8-0.5,1.1-0.3
		c0.2,0.1,0.3,0.3,0.3,0.6s-0.1,0.8-0.4,1.5c-0.3,0.7-0.7,1.7-1.4,2.9c0.4,0.1,1.1-0.3,2.1-0.9c0.2-0.1,0.3-0.2,0.4-0.3
		c0.1-0.1,0.2-0.1,0.3-0.2c0.1-0.1,0.2-0.1,0.3-0.1c0.1,0,0.2,0.1,0.2,0.1c0.2,0.2,0.2,0.5,0.1,0.9c-1.4,4.5-1.9,7.2-1.6,8.1
		c0,0.1,0,0.1,0.1,0.1c0.1,0,0.3-0.1,0.5-0.3s0.5-0.5,0.8-0.9s0.7-1,1.1-1.6c0.4-0.6,0.8-1.3,1.3-2.2c0.5-0.9,0.9-1.8,1.4-2.8
		C163.6,17.7,163.7,17.6,163.8,17.6z M155.7,16.1c-0.1,0.5-0.1,0.9,0.1,1.2c1-1.8,1.5-3.1,1.6-3.7c-0.2,0.1-0.4,0.3-0.6,0.5
		c-0.2,0.2-0.4,0.5-0.7,0.9C156,15.4,155.8,15.8,155.7,16.1z"/>
	<path class="st2" d="M169.9,17.6c0.1,0,0.2,0,0.3,0.1c0.1,0.1,0.1,0.2,0.2,0.3c0,0.1,0,0.2-0.1,0.3c-1.6,2.3-3,3.9-4.3,4.8
		c-0.5,0.4-1,0.6-1.5,0.6c-0.4,0-0.7-0.1-1-0.3c-0.2-0.1-0.3-0.3-0.4-0.5s-0.2-0.5-0.3-0.9s-0.1-0.9-0.1-1.5
		c0.1-0.6,0.2-1.4,0.5-2.2v0c0.4-1.3,0.9-2.3,1.4-3.1c0.6-0.8,1-1.2,1.5-1.2c0.3,0,0.5,0.1,0.6,0.4c0.2,0.4,0,1-0.5,1.8
		c-0.5,0.8-1.3,1.6-2.3,2.5c-0.2,0.6-0.3,1.1-0.4,1.6c-0.1,0.5-0.1,0.9-0.1,1.1c0,0.3,0.1,0.5,0.1,0.7c0.1,0.2,0.1,0.4,0.2,0.4
		c0.1,0.1,0.1,0.2,0.2,0.2c0.4,0.3,0.9,0.2,1.6-0.3c1.2-0.9,2.6-2.4,4.1-4.6C169.7,17.7,169.8,17.6,169.9,17.6z M165.9,14.8
		c-0.5,0.3-1,1-1.4,2.1C165.3,16,165.8,15.4,165.9,14.8z"/>
</g>
</svg>
