<?xml version="1.0" encoding="utf-8"?>
<!-- Generator: Adobe Illustrator 21.1.0, SVG Export Plug-In . SVG Version: 6.00 Build 0)  -->
<svg version="1.1" id="Layer_1" xmlns="http://www.w3.org/2000/svg" xmlns:xlink="http://www.w3.org/1999/xlink" x="0px" y="0px"
	 viewBox="0 0 49 49" style="enable-background:new 0 0 49 49;" xml:space="preserve">
<style type="text/css">
	.st0{fill:#ffffff;}
</style>
<g>
	<g>
		<path class="st0" d="M34,14.8H15.6c-1.6,0-3,1.3-3,3v12.6c0,1.6,1.3,3,3,3H34c1.6,0,3-1.3,3-3V17.8C37,16.2,35.6,14.8,34,14.8z
			 M34,32.1H15.6c-0.9,0-1.6-0.7-1.6-1.6V17.8c0-0.9,0.7-1.6,1.6-1.6H34c0.9,0,1.6,0.7,1.6,1.6v12.6h0C35.6,31.3,34.9,32.1,34,32.1z
			 M28,24l6-5.4c0.3-0.3,0.3-0.7,0.1-1c-0.3-0.3-0.7-0.3-1,0L24.8,25l-1.6-1.4c0,0,0,0,0,0c0,0-0.1-0.1-0.1-0.1l-6.5-5.9
			c-0.3-0.3-0.7-0.2-1,0.1c-0.3,0.3-0.2,0.7,0.1,1l6,5.4l-6,5.6c-0.3,0.3-0.3,0.7,0,1c0.1,0.1,0.3,0.2,0.5,0.2
			c0.2,0,0.3-0.1,0.5-0.2l6.1-5.7l1.7,1.5c0.1,0.1,0.3,0.2,0.5,0.2c0.2,0,0.3-0.1,0.5-0.2l1.7-1.5l6.1,5.8c0.1,0.1,0.3,0.2,0.5,0.2
			c0.2,0,0.4-0.1,0.5-0.2c0.3-0.3,0.2-0.7,0-1L28,24z"/>
	</g>
</g>
<g>
	<path class="st0" d="M24.8,47.4C12,47.4,1.5,37,1.5,24.1C1.5,11.3,12,0.9,24.8,0.9C37.6,0.9,48,11.3,48,24.1
		C48,37,37.6,47.4,24.8,47.4z M24.8,2.4C12.8,2.4,3,12.1,3,24.1s9.8,21.8,21.8,21.8c12,0,21.8-9.8,21.8-21.8S36.8,2.4,24.8,2.4z"/>
</g>
</svg>
