<?xml version="1.0" encoding="utf-8"?>
<!-- Generator: Adobe Illustrator 21.1.0, SVG Export Plug-In . SVG Version: 6.00 Build 0)  -->
<svg version="1.1" id="Layer_1" xmlns="http://www.w3.org/2000/svg" xmlns:xlink="http://www.w3.org/1999/xlink" x="0px" y="0px"
	 viewBox="0 0 95 106" style="enable-background:new 0 0 95 106;" xml:space="preserve">
<style type="text/css">
	.st0{fill:#0097FF;}
</style>
<g>
	<g>
		<path class="st0" d="M87.9,81.7c-1.1-6.5-5.7-11.8-11.9-13.9l-13.9-4.6v-2.1h-3.2v3l-2.4,9.6l-6.5-7.8h-4.8l-6.5,7.8l-2.4-9.6v-3
			h-3.2v2.1L19,67.8c-6.3,2.1-10.8,7.4-11.9,13.9L3.5,103h88L87.9,81.7z M39.6,99.8H21.8l1.4-14.4L20,85.1l-1.5,14.7H7.3l2.9-17.6
			c0.9-5.3,4.6-9.7,9.8-11.4l13.4-4.4L37,80.7l3.7-4.4l1.9,2.9L39.6,99.8z M52.1,99.8h-9.2L46,78.4l-3.2-4.7l3.8-4.6h1.7l3.8,4.6
			L49,78.4L52.1,99.8z M76.5,99.8L75,85.1l-3.2,0.3l1.4,14.4H55.4l-3-20.6l1.9-2.9l3.7,4.4l3.6-14.3L75,70.8
			c5.1,1.7,8.9,6.1,9.8,11.4l2.9,17.6H76.5z M27.2,46.5c0.8,2.8,2.4,5.4,4.5,7.6l6.3,6.3c1.5,1.5,3.6,2.4,5.7,2.4h7.6
			c2.2,0,4.2-0.8,5.7-2.4l6.3-6.3c2.1-2.1,3.7-4.7,4.5-7.6c4-0.5,7.2-3.8,7.2-8c0-2.6-1.3-5-3.3-6.5h0.1v-9.7c0-4-3-7.4-6.9-8
			C62.5,7.6,55.9,3,48.7,3h-1.2C34.1,3,23.2,13.9,23.2,27.2V32h0.1c-2,1.5-3.3,3.8-3.3,6.5C20,42.6,23.1,46,27.2,46.5z M65.3,41.5
			c0,3.9-1.5,7.5-4.3,10.3L54.7,58c-0.9,0.9-2.2,1.4-3.4,1.4h-7.6c-1.3,0-2.5-0.5-3.4-1.4L34,51.7c-2.8-2.7-4.3-6.4-4.3-10.3v-7.8
			h6.4c7.1,0,13.9-2.5,19.2-7.1l0.5,0.8c2.1,3.4,5.6,5.7,9.6,6.2V41.5z M71.8,38.5c0,2.1-1.4,3.9-3.3,4.6c0-0.5,0.1-1,0.1-1.6v-7.5
			C70.4,34.6,71.8,36.4,71.8,38.5z M26.5,27.2c0-11.6,9.4-21,21-21h1.2c6.2,0,11.8,4.2,13.5,10.1l0.3,1.2h1.2c2.7,0,4.9,2.2,4.9,4.8
			v8.2c-0.5-0.1-1.1-0.2-1.6-0.2c-3.4,0-6.7-1.8-8.4-4.8l-2.6-4.3l-1.5,1.5c-4.9,4.9-11.4,7.6-18.4,7.6h-8c-0.6,0-1.1,0.1-1.6,0.2
			V27.2z M26.5,33.9v7.5c0,0.5,0,1,0.1,1.6c-1.9-0.6-3.3-2.4-3.3-4.6C23.2,36.4,24.6,34.6,26.5,33.9z"/>
	</g>
</g>
</svg>
