<?xml version="1.0" encoding="utf-8"?>
<!-- Generator: Adobe Illustrator 23.0.3, SVG Export Plug-In . SVG Version: 6.00 Build 0)  -->
<svg version="1.1" id="Layer_1" xmlns="http://www.w3.org/2000/svg" xmlns:xlink="http://www.w3.org/1999/xlink" x="0px" y="0px"
	 viewBox="0 0 20 20" enable-background="new 0 0 20 20" xml:space="preserve">
<path fill-rule="evenodd" clip-rule="evenodd" fill="#FFFFFF" d="M6.54439,4.64669h6.91114V1.86982H6.54439V4.64669z
	 M17.49055,4.64669c1.3798,0,2.50937,1.14375,2.50937,2.5416v1.10973c-0.27667,1.09236-1.24968,1.90529-2.41429,1.90529h-5.65217
	V9.57279c0-0.78325-0.62984-1.42101-1.40339-1.42101H9.46985c-0.77354,0-1.40339,0.63775-1.40339,1.42101v0.63051H2.41429
	C1.2218,10.2033,0.24879,9.34332,0,8.21115V7.18828c0-1.39784,1.12958-2.5416,2.50937-2.5416h2.18838V1.35006
	C4.69775,0.60518,5.29614,0,6.03108,0h7.93777c0.73494,0,1.33333,0.60518,1.33333,1.35006v3.29662H17.49055z M11.93354,11.35017
	h5.65217c0.93011,0,1.77158-0.36629,2.41429-0.94975v5.02818v2.0298C20,18.85697,18.87042,20,17.48991,20H2.50945
	c-1.3798,0-2.50937-1.14303-2.50937-2.5416v-2.0298v-5.01442c0.642,0.58056,1.48703,0.936,2.41429,0.936h5.65217v0.63124
	c0,0.78325,0.62984,1.42028,1.40339,1.42028h1.06023c0.77354,0,1.40339-0.63703,1.40339-1.42028V11.35017z M10.53022,12.25504
	H9.46999c-0.14727,0-0.27024-0.12523-0.27024-0.27363v-2.4084c0-0.14912,0.12297-0.27436,0.27024-0.27436h1.06023
	c0.14727,0,0.27024,0.12524,0.27024,0.27436v2.4084C10.80046,12.12981,10.67749,12.25504,10.53022,12.25504z"/>
</svg>
