<?xml version="1.0" encoding="utf-8"?>
<!-- Generator: Adobe Illustrator 21.1.0, SVG Export Plug-In . SVG Version: 6.00 Build 0)  -->
<svg version="1.1" id="Layer_1" xmlns="http://www.w3.org/2000/svg" xmlns:xlink="http://www.w3.org/1999/xlink" x="0px" y="0px"
	 viewBox="0 0 37.2 37.2" style="enable-background:new 0 0 37.2 37.2;" xml:space="preserve">
<style type="text/css">
	.st0{fill:#000000;}
</style>
<path class="st0" d="M18.6,2.1c9.1,0,16.5,7.4,16.5,16.5s-7.4,16.5-16.5,16.5S2.1,27.7,2.1,18.6S9.5,2.1,18.6,2.1 M18.6,0.1
	C8.4,0.1,0.1,8.4,0.1,18.6s8.3,18.5,18.5,18.5s18.5-8.3,18.5-18.5S28.8,0.1,18.6,0.1L18.6,0.1z"/>
<path class="st0" d="M27.5,14.2c-0.6,0.3-1.3,0.5-2,0.6c0.7-0.4,1.3-1.1,1.6-2c-0.7,0.4-1.4,0.7-2.3,0.9c-0.6-0.7-1.6-1.1-2.6-1.1
	c-2,0-3.6,1.6-3.6,3.5c0,0.3,0,0.5,0.1,0.8c-3-0.1-5.6-1.6-7.3-3.7c-0.3,0.5-0.5,1.1-0.5,1.8c0,1.2,0.6,2.3,1.6,2.9
	c-0.6,0-1.1-0.2-1.6-0.4c0,0,0,0,0,0c0,1.7,1.2,3.1,2.9,3.5c-0.3,0.1-0.6,0.1-0.9,0.1c-0.2,0-0.5,0-0.7-0.1c0.5,1.4,1.8,2.4,3.3,2.4
	C14.2,24.5,12.7,25,11,25c-0.3,0-0.6,0-0.8,0c1.6,1,3.4,1.6,5.5,1.6c6.5,0,10.1-5.4,10.1-10c0-0.2,0-0.3,0-0.5
	C26.4,15.6,27,15,27.5,14.2z"/>
</svg>
