<?xml version="1.0" encoding="utf-8"?>
<!-- Generator: Adobe Illustrator 26.2.1, SVG Export Plug-In . SVG Version: 6.00 Build 0)  -->
<svg version="1.1" id="Layer_1" xmlns="http://www.w3.org/2000/svg" xmlns:xlink="http://www.w3.org/1999/xlink" x="0px" y="0px"
	 viewBox="0 0 49 49" style="enable-background:new 0 0 49 49;" xml:space="preserve">
<style type="text/css">
	.st0{fill:#FFFFFF;}
</style>
<g>
	<path class="st0" d="M25,47.6c-12.8,0-23.3-10.4-23.3-23.3C1.8,11.5,12.2,1,25,1s23.3,10.4,23.3,23.3C48.3,37.1,37.9,47.6,25,47.6z
		 M25,2.5c-12,0-21.8,9.8-21.8,21.8S13,46.1,25,46.1s21.8-9.8,21.8-21.8S37,2.5,25,2.5z"/>
</g>
<path class="st0" d="M27,22.6l7.9-9.2h-1.9l-6.9,8l-5.5-8h-6.3l8.3,12.1l-8.3,9.7h1.9l7.3-8.4l5.8,8.4h6.3L27,22.6L27,22.6z
	 M24.5,25.6l-0.8-1.2l-6.7-9.6h2.9l5.4,7.7l0.8,1.2l7,10h-2.9L24.5,25.6L24.5,25.6z"/>
</svg>
