<?xml version="1.0" encoding="utf-8"?>
<!-- Generator: Adobe Illustrator 21.1.0, SVG Export Plug-In . SVG Version: 6.00 Build 0)  -->
<svg version="1.1" id="Layer_1" xmlns="http://www.w3.org/2000/svg" xmlns:xlink="http://www.w3.org/1999/xlink" x="0px" y="0px"
	 viewBox="0 0 37.2 37.2" style="enable-background:new 0 0 37.2 37.2;" xml:space="preserve">
<style type="text/css">
	.st0{fill:#000000;}
</style>
<path class="st0" d="M18.6,2.1c9.1,0,16.5,7.4,16.5,16.5s-7.4,16.5-16.5,16.5S2.1,27.7,2.1,18.6S9.5,2.1,18.6,2.1 M18.6,0.1
	C8.4,0.1,0.1,8.4,0.1,18.6s8.3,18.5,18.5,18.5s18.5-8.3,18.5-18.5S28.8,0.1,18.6,0.1L18.6,0.1z"/>
<path class="st0" d="M27.8,12.8c-0.5-1-1.1-1.2-2.3-1.3c-1.2-0.1-4.2-0.1-6.8-0.1c-2.6,0-5.6,0-6.8,0.1c-1.2,0.1-1.8,0.3-2.3,1.3
	c-0.6,1-0.8,2.8-0.8,5.8c0,0,0,0,0,0c0,0,0,0,0,0v0c0,3.1,0.3,4.8,0.8,5.8c0.5,1,1.1,1.2,2.3,1.3c1.2,0.1,4.2,0.1,6.8,0.1
	c2.6,0,5.6,0,6.8-0.1c1.2-0.1,1.8-0.3,2.3-1.3c0.6-1,0.8-2.8,0.8-5.8c0,0,0,0,0,0c0,0,0,0,0,0C28.6,15.6,28.3,13.8,27.8,12.8z
	 M16.1,22.6v-7.9l6.2,3.9L16.1,22.6z"/>
</svg>
